<svg width="530" height="509" viewBox="0 0 530 509" fill="none" xmlns="http://www.w3.org/2000/svg">
<path d="M530 0H0V509H530V0Z" fill="#232324"/>
<path opacity="0.34" d="M438.045 416.311H109.869C105.682 416.311 102.29 413.054 102.29 409.032C102.29 405.011 105.682 401.754 109.869 401.754H438.045C442.232 401.754 445.624 405.011 445.624 409.032C445.624 413.054 442.232 416.311 438.045 416.311Z" fill="black"/>
<path d="M462.16 320.416H395.433C388.649 320.416 383.137 315.122 383.137 308.607C383.137 302.092 388.649 296.798 395.433 296.798H432.692C440.748 296.798 447.267 290.537 447.267 282.8C447.267 275.064 440.748 268.803 432.692 268.803H399.567C390.504 268.803 383.137 261.728 383.137 253.024C383.137 244.32 390.504 237.245 399.567 237.245H436.402C444.458 237.245 451.03 230.933 451.03 223.197C451.03 215.46 444.458 209.148 436.402 209.148H383.19H370.47C362.414 209.148 355.842 202.837 355.842 195.1C355.842 187.363 362.414 181.051 370.47 181.051H384.886C392.942 181.051 399.514 174.74 399.514 167.003C399.514 159.266 392.942 152.954 384.886 152.954H376.671H375.293H288.214H285.246H194.298H173.469C165.413 152.954 158.841 159.266 158.841 167.003C158.841 174.74 165.413 181.051 173.469 181.051H179.67C187.726 181.051 194.298 187.363 194.298 195.1C194.298 202.837 187.726 209.148 179.67 209.148H123.861C117.66 209.148 112.625 213.984 112.625 219.939C112.625 225.894 117.66 230.73 123.861 230.73H182.638C189.104 230.73 194.351 235.769 194.351 241.979C194.351 248.188 189.104 253.228 182.638 253.228H88.828C80.772 253.228 74.2 259.539 74.2 267.276C74.2 275.013 80.772 281.324 88.828 281.324H179.67C187.726 281.324 194.298 287.636 194.298 295.373C194.298 303.11 187.726 309.421 179.67 309.421H124.815C111.883 309.421 101.389 319.499 101.389 331.919C101.389 344.339 111.883 354.417 124.815 354.417H194.298H225.144H242.475H383.19H462.16C471.912 354.417 479.809 346.833 479.809 337.467C479.809 328 471.912 320.416 462.16 320.416Z" fill="#8752CC"/>
<path d="M338.356 409.045H347.896V271.207H338.356V409.045Z" fill="#2F262D"/>
<path d="M302.047 298.987C300.51 295.678 302.047 291.759 305.545 290.232C306.446 289.875 307.4 289.672 308.354 289.672C311.057 289.672 313.548 291.199 314.661 293.591L348.581 366.989L335.967 372.384L302.047 298.987Z" fill="#FC9F6F"/>
<path d="M245.34 409.045H254.88V271.207H245.34V409.045Z" fill="#2F262D"/>
<path d="M289.486 280.204C256.679 280.204 230.126 256.179 230.126 226.606C230.126 218.971 231.928 211.693 235.108 205.076C214.226 213.372 199.651 232.256 199.651 254.143C199.651 283.767 226.204 307.741 259.011 307.741C283.338 307.741 304.22 294.558 313.389 275.674C306.022 278.575 297.966 280.204 289.486 280.204Z" fill="#F2F2F2"/>
<path d="M256.626 294.711C274.569 294.711 289.115 281.881 289.115 266.054C289.115 250.227 274.569 237.397 256.626 237.397C238.683 237.397 224.137 250.227 224.137 266.054C224.137 281.881 238.683 294.711 256.626 294.711Z" fill="#3B323A"/>
<path d="M198.114 271.195H125.451C122.695 271.195 120.416 269.006 120.416 266.36V261.779C120.416 259.132 122.695 256.943 125.451 256.943H198.114C200.87 256.943 203.149 259.132 203.149 261.779V266.36C203.149 269.006 200.87 271.195 198.114 271.195Z" fill="#495AF2"/>
<path d="M284.769 244.218C274.593 244.218 266.325 236.278 266.325 226.505V208.792C266.325 202.022 260.654 196.576 253.605 196.576V226.505C253.605 243.047 267.544 256.434 284.769 256.434H310.58V244.218H284.769Z" fill="#EF9067"/>
<path d="M288.956 150.715C287.048 173.874 265.848 199.528 246.026 196.27C227.052 193.166 214.014 164.407 220.427 144.251C224.402 131.831 235.32 124.043 244.118 117.783C253.234 111.267 259.382 106.89 266.378 107.959C280.264 109.995 290.493 132.289 288.956 150.715Z" fill="#603936"/>
<path d="M262.191 216.63C261.82 216.223 258.852 212.915 258.322 212.457C256.944 207.01 254.135 201.004 254.718 193.98C250.743 191.18 244.171 187.617 236.698 188.126C234.472 188.279 232.14 188.788 230.974 189.043C224.508 190.468 220.427 192.758 219.102 193.522C217.3 194.591 216.399 195.1 215.339 196.118C212.477 198.968 211.788 202.429 211.417 204.465C208.237 222.179 210.728 239.179 211.046 240.655C211.629 243.353 212.424 245.745 212.424 245.745C213.749 249.766 215.339 252.26 215.763 253.38C217.883 258.877 222.706 270.432 227.794 279.237C231.504 279.797 239.931 283.36 245.496 281.528C253.976 278.728 271.466 272.468 277.72 271.195C269.929 262.797 262.774 253.431 260.919 242.03C260.442 239.077 260.018 236.176 259.7 233.326C260.442 232.969 264.947 230.781 265.848 226.403C266.802 221.67 262.933 217.445 262.191 216.63Z" fill="#146A5A"/>
<path d="M243.052 205.886C247.675 204.648 250.206 199.452 248.705 194.28C247.203 189.108 242.237 185.92 237.613 187.158C232.99 188.396 230.459 193.593 231.96 198.765C233.462 203.936 238.427 207.125 243.052 205.886Z" fill="#EF9067"/>
<path d="M238.977 184.971C241.892 191.588 246.715 193.878 249.789 195.609C255.778 198.968 267.014 198.663 267.014 198.663C267.385 196.321 267.756 194.285 269.664 190.417C272.42 184.665 274.964 183.291 278.515 178.099C283.815 170.26 286.465 160.793 284.769 159.877C283.55 159.164 280.211 162.829 278.038 164.967C271.837 171.075 257.951 180.135 238.977 184.971Z" fill="#603936"/>
<path d="M238.765 199.528H236.539C231.663 199.528 227.741 195.761 227.741 191.079V158.961H245.337V193.165C245.337 196.678 242.369 199.528 238.765 199.528Z" fill="#EF9067"/>
<path d="M139.699 409.045H149.239V271.207H139.699V409.045Z" fill="#2F262D"/>
<path d="M198.376 409.045H207.916V271.207H198.376V409.045Z" fill="#494149"/>
<path d="M395.777 409.045H405.318V271.207H395.777V409.045Z" fill="#494149"/>
<path opacity="0.71" d="M227.741 162.371C228.907 172.093 235.903 180.135 245.337 183.189V157.026H227.741V162.371Z" fill="#D36B46"/>
<path d="M253.605 181.916C240.673 181.916 230.232 171.889 230.232 159.469V132.085C230.232 130.914 231.186 129.998 232.405 129.998H265.636C271.89 129.998 276.978 134.885 276.978 140.891V159.469C276.978 171.889 266.537 181.916 253.605 181.916Z" fill="#FC9F6F"/>
<path d="M276.978 156.263C276.713 156.874 276.077 157.281 275.388 157.281H265.106C264.152 157.281 263.357 156.518 263.357 155.601V150.053C263.357 149.137 264.152 148.374 265.106 148.374H275.388C276.077 148.374 276.713 148.781 276.978 149.392V147.254C276.501 146.999 275.971 146.847 275.388 146.847H265.106C263.251 146.847 261.767 148.272 261.767 150.053V155.601C261.767 157.383 263.251 158.808 265.106 158.808H275.388C275.971 158.808 276.501 158.655 276.978 158.401V156.263Z" fill="#DD9883"/>
<path d="M256.308 157.993H246.026C244.595 157.993 243.482 156.873 243.482 155.55V150.002C243.482 148.628 244.648 147.559 246.026 147.559H256.308C257.739 147.559 258.852 148.678 258.852 150.002V155.55C258.852 156.924 257.686 157.993 256.308 157.993Z" stroke="#DD9883" stroke-width="3" stroke-miterlimit="10" stroke-linecap="round" stroke-linejoin="round"/>
<path opacity="0.6" d="M244.754 163.745V136.361C244.754 135.19 245.708 134.274 246.927 134.274L266.113 127.809C264.046 125.214 269.293 130.049 265.636 130.049H232.405C231.186 130.049 230.232 130.965 230.232 132.136V159.52C230.232 171.94 240.673 181.967 253.605 181.967C253.87 181.967 254.135 181.967 254.453 181.967C248.57 177.844 244.754 171.227 244.754 163.745Z" fill="#EF9067"/>
<path d="M275.388 156.975H265.106C263.675 156.975 262.562 155.855 262.562 154.532V148.984C262.562 147.609 263.728 146.541 265.106 146.541H275.388C276.819 146.541 277.932 147.66 277.932 148.984V154.532C277.932 155.906 276.766 156.975 275.388 156.975Z" stroke="#F6CDF7" stroke-width="3" stroke-miterlimit="10" stroke-linecap="round" stroke-linejoin="round"/>
<path d="M259.7 170.617C256.732 170.617 254.347 168.326 254.347 165.527V163.134H264.947V165.527C264.947 168.326 262.615 170.617 259.7 170.617Z" fill="#FCFAFA"/>
<path d="M250.107 151.122H254.877" stroke="#161515" stroke-width="3" stroke-miterlimit="10" stroke-linecap="round" stroke-linejoin="round"/>
<path d="M268.127 151.122H272.897" stroke="#161515" stroke-width="3" stroke-miterlimit="10" stroke-linecap="round" stroke-linejoin="round"/>
<path d="M256.308 156.975H246.026C244.595 156.975 243.482 155.855 243.482 154.532V148.984C243.482 147.609 244.648 146.541 246.026 146.541H256.308C257.739 146.541 258.852 147.66 258.852 148.984V154.532C258.852 155.906 257.686 156.975 256.308 156.975Z" stroke="#F6CDF7" stroke-width="3" stroke-miterlimit="10" stroke-linecap="round" stroke-linejoin="round"/>
<path d="M263.41 109.384C256.997 101.444 246.079 101.596 244.065 101.393C242.263 101.037 232.352 101.495 225.091 103.327C208.343 107.603 196.683 122.16 196.683 138.855V160.233C196.683 174.587 207.707 191.995 221.858 196.525C229.702 199.07 238.394 201.004 240.461 200.699C229.967 182.018 231.398 170.973 234.366 164.509C241.468 148.73 262.297 149.29 267.438 131.729C267.544 131.22 270.777 118.546 263.41 109.384Z" fill="#754743"/>
<path d="M328.812 256.281C329.342 254.958 329.607 253.533 329.607 252.057C329.607 245.287 323.936 239.841 316.887 239.841C309.838 239.841 304.167 245.287 304.167 252.057C304.167 253.533 304.432 254.958 304.962 256.281H328.812Z" fill="#EF9067"/>
<path d="M288.002 256.943C286.942 252.26 281.059 248.697 273.904 248.697C266.802 248.697 260.866 252.26 259.806 256.943H288.002Z" fill="#F4EFF0"/>
<path d="M218.201 221.313C222.474 221.313 225.939 216.094 225.939 209.657C225.939 203.22 222.474 198.001 218.201 198.001C213.928 198.001 210.463 203.22 210.463 209.657C210.463 216.094 213.928 221.313 218.201 221.313Z" fill="#EF9067"/>
<path d="M241.627 244.625C231.451 244.625 223.183 236.685 223.183 226.912V205.28C223.183 201.92 220.321 199.172 216.823 199.172C213.325 199.172 210.463 201.92 210.463 205.28V226.912C210.463 243.455 224.402 256.841 241.627 256.841H267.438V244.625H254.506H241.627Z" fill="#FC9F6F"/>
<path d="M348.793 256.943H289.433C288.691 256.943 288.055 256.332 288.055 255.62C288.055 254.907 288.691 254.296 289.433 254.296H348.846C349.588 254.296 350.224 254.907 350.224 255.62C350.224 256.332 349.588 256.943 348.793 256.943Z" fill="white"/>
<path d="M348.793 255.619H289.433C288.903 255.619 288.479 255.365 288.214 254.958C288.108 255.161 288.002 255.365 288.002 255.619C288.002 256.332 288.638 256.943 289.38 256.943H348.793C349.535 256.943 350.171 256.332 350.171 255.619C350.171 255.365 350.118 255.161 349.959 254.958C349.747 255.314 349.323 255.619 348.793 255.619Z" fill="#F4EFF0"/>
<path d="M300.934 256.943H289.433C288.691 256.943 288.055 256.332 288.055 255.62C288.055 254.907 288.691 254.296 289.433 254.296H300.934C301.676 254.296 302.312 254.907 302.312 255.62C302.312 256.332 301.729 256.943 300.934 256.943Z" fill="#F4EFF0"/>
<path d="M344.606 254.296H340.26V253.329C340.26 252.82 340.684 252.362 341.267 252.362H343.599C344.129 252.362 344.606 252.769 344.606 253.329V254.296Z" fill="#F4EFF0"/>
<path d="M339.306 254.296H334.96V253.329C334.96 252.82 335.384 252.362 335.967 252.362H338.299C338.829 252.362 339.306 252.769 339.306 253.329V254.296Z" fill="#F4EFF0"/>
<path d="M334.006 254.296H329.66V253.329C329.66 252.82 330.084 252.362 330.667 252.362H332.999C333.529 252.362 334.006 252.769 334.006 253.329V254.296Z" fill="#F4EFF0"/>
<path d="M328.706 254.296H324.36V253.329C324.36 252.82 324.784 252.362 325.367 252.362H327.699C328.229 252.362 328.706 252.769 328.706 253.329V254.296Z" fill="#F4EFF0"/>
<path d="M323.406 254.296H319.06V253.329C319.06 252.82 319.484 252.362 320.067 252.362H322.399C322.929 252.362 323.406 252.769 323.406 253.329V254.296Z" fill="#F4EFF0"/>
<path d="M318.106 254.296H313.76V253.329C313.76 252.82 314.184 252.362 314.767 252.362H317.099C317.629 252.362 318.106 252.769 318.106 253.329V254.296Z" fill="#F4EFF0"/>
<path d="M312.806 254.296H308.46V253.329C308.46 252.82 308.884 252.362 309.467 252.362H311.799C312.329 252.362 312.806 252.769 312.806 253.329V254.296Z" fill="#F4EFF0"/>
<path d="M307.506 254.296H303.16V253.329C303.16 252.82 303.584 252.362 304.167 252.362H306.499C307.029 252.362 307.506 252.769 307.506 253.329V254.296Z" fill="#F4EFF0"/>
<path d="M302.206 254.296H297.86V253.329C297.86 252.82 298.284 252.362 298.867 252.362H301.199C301.729 252.362 302.206 252.769 302.206 253.329V254.296Z" fill="#F4EFF0"/>
<path d="M296.906 254.296H292.56V253.329C292.56 252.82 292.984 252.362 293.567 252.362H295.899C296.429 252.362 296.906 252.769 296.906 253.329V254.296Z" fill="#F4EFF0"/>
<path d="M289.433 256.943H300.934C301.676 256.943 302.312 256.332 302.312 255.62H288.002C288.002 256.332 288.638 256.943 289.433 256.943Z" fill="#E2E2E2"/>
<path d="M294.574 298.274H252.651L252.333 276.896H304.273C307.771 276.896 310.58 279.594 310.58 282.953C310.527 291.453 303.372 298.274 294.574 298.274Z" fill="#352934"/>
<path d="M260.866 375.795L286.571 292.319C287.419 289.519 290.122 287.585 293.196 287.585C293.832 287.585 294.521 287.687 295.157 287.839C298.814 288.857 300.881 292.573 299.821 296.085L274.116 379.561L260.866 375.795Z" fill="#EF9067"/>
<path d="M282.225 368.974L260.866 362.917L287.79 275.522C289.539 269.872 295.74 266.614 301.623 268.294C307.506 269.974 310.898 275.929 309.149 281.579L282.225 368.974Z" fill="#352934"/>
<path d="M388.331 232.206H299.291C297.542 232.206 296.111 230.831 296.111 229.152L307.135 168.072C307.135 166.392 308.566 165.018 310.315 165.018H399.355C401.104 165.018 402.535 166.392 402.535 168.072L391.511 229.152C391.511 230.831 390.133 232.206 388.331 232.206Z" fill="#CECECE"/>
<path d="M393.631 232.206H304.591C302.842 232.206 301.411 230.831 301.411 229.152L312.435 168.072C312.435 166.392 313.866 165.018 315.615 165.018H404.655C406.404 165.018 407.835 166.392 407.835 168.072L396.811 229.152C396.811 230.831 395.433 232.206 393.631 232.206Z" fill="#F4EFF0"/>
<path d="M366.442 253.635L359.128 218.056H346.09C344.5 218.056 343.281 219.481 343.599 220.957L350.065 252.362C350.33 253.533 349.376 254.602 348.157 254.602H340.207C338.776 254.602 337.663 255.722 337.663 257.045H351.019H363.421C365.382 257.096 366.813 255.416 366.442 253.635Z" fill="#CECECE"/>
<path d="M367.131 257.096H353.616L345.772 218.921C345.666 218.463 346.037 218.106 346.514 218.106H361.725L369.251 254.704C369.463 255.925 368.456 257.096 367.131 257.096Z" fill="#F4EFF0"/>
<path d="M351.072 257.096H353.616L352.927 253.635H350.33L351.072 257.096Z" fill="#F4EFF0"/>
<path d="M351.072 257.096C352.397 257.096 353.404 255.925 353.139 254.653L352.927 253.635H350.065L351.072 257.096Z" fill="#CECECE"/>
<path d="M362.732 199.833C359.87 199.833 357.538 197.594 357.538 194.845C357.538 193.929 357.803 193.115 358.227 192.402C357.485 192.198 356.69 192.046 355.842 192.046C351.337 192.046 347.733 195.558 347.733 199.833C347.733 204.109 351.39 207.621 355.842 207.621C360.347 207.621 363.951 204.109 363.951 199.833C363.951 199.783 363.951 199.732 363.951 199.681C363.527 199.783 363.156 199.833 362.732 199.833Z" fill="#CECECE"/>
<path d="M301.093 286.617L257.421 297.663C245.549 300.666 233.518 292.573 227.741 279.186L295.422 265.901C301.358 264.425 307.453 267.835 308.99 273.536C310.58 279.288 307.029 285.141 301.093 286.617Z" fill="#3B323A"/>
<path d="M345.03 350.242L324.678 358.946L289.009 281.884C286.518 276.488 289.062 270.177 294.68 267.784C300.298 265.392 306.87 267.835 309.361 273.231L345.03 350.242Z" fill="#3B323A"/>
<path d="M193.715 271.195H420.661C423.417 271.195 425.696 269.006 425.696 266.36V261.779C425.696 259.132 423.417 256.943 420.661 256.943H193.715C190.959 256.943 188.68 259.132 188.68 261.779V266.36C188.68 269.006 190.906 271.195 193.715 271.195Z" fill="#F2F2F2"/>
<path d="M378.208 375.031L333.105 382.921C331.356 383.226 329.713 382.157 329.342 380.579L329.024 379.205C328.123 375.235 330.773 371.214 335.119 370.145L367.979 362.154C374.339 360.627 380.752 363.426 381.918 368.567L382.342 370.399C382.819 372.486 380.964 374.573 378.208 375.031Z" fill="#146A5A"/>
<path d="M379.957 371.111L329.554 379.917C329.448 379.917 329.342 379.968 329.236 379.968L329.395 380.579C329.766 382.208 331.409 383.226 333.158 382.92L378.261 375.031C381.017 374.573 382.925 372.486 382.448 370.399L382.395 370.246C381.653 370.653 380.858 370.959 379.957 371.111Z" fill="#FFFDFD"/>
<path d="M285.087 402.263L247.404 377.22C245.973 376.253 245.549 374.369 246.503 372.995L247.298 371.774C249.577 368.363 254.453 367.294 258.269 369.534L287.366 386.229C293.037 389.487 295.475 395.849 292.507 400.227L291.447 401.805C290.281 403.586 287.366 403.79 285.087 402.263Z" fill="#146A5A"/>
<path d="M289.221 400.685L247.086 372.69C246.98 372.639 246.927 372.537 246.821 372.486L246.503 372.995C245.602 374.369 245.973 376.253 247.404 377.22L285.087 402.263C287.366 403.79 290.281 403.586 291.447 401.805L291.553 401.652C290.758 401.499 289.963 401.143 289.221 400.685Z" fill="white"/>
<path d="M180.73 256.943H172.144C167.798 256.943 164.247 253.533 164.247 249.359V226.912H188.627V249.359C188.68 253.533 185.129 256.943 180.73 256.943Z" fill="#FF6161"/>
<path d="M167.003 229.966C161.332 229.966 156.774 234.395 156.774 239.79C156.774 245.185 161.385 249.614 167.003 249.614C172.621 249.614 177.232 245.185 177.232 239.79C177.232 234.395 172.621 229.966 167.003 229.966ZM167.003 247.476C162.604 247.476 159 244.015 159 239.79C159 235.565 162.604 232.104 167.003 232.104C171.402 232.104 175.006 235.565 175.006 239.79C174.953 244.066 171.402 247.476 167.003 247.476Z" fill="#F4A36C"/>
<path d="M180.73 256.943H172.144C167.798 256.943 164.247 253.533 164.247 249.359V226.912H188.627V249.359C188.68 253.533 185.129 256.943 180.73 256.943Z" fill="#F7BC8B"/>
<path d="M175.801 249.817C173.363 249.817 171.402 247.934 171.402 245.592V226.912H164.247V249.359C164.247 253.533 167.798 256.943 172.144 256.943H180.73C184.917 256.943 188.362 253.787 188.627 249.817H175.801Z" fill="#EFA573"/>
<path d="M276.872 256.943C277.402 255.62 277.667 254.195 277.667 252.719C277.667 245.949 271.996 240.503 264.947 240.503C257.898 240.503 252.227 245.949 252.227 252.719C252.227 254.195 252.492 255.62 253.022 256.943H276.872Z" fill="#FC9F6F"/>
<path opacity="0.77" d="M173.787 222.84C175.69 222.84 177.232 221.359 177.232 219.532C177.232 217.704 175.69 216.223 173.787 216.223C171.884 216.223 170.342 217.704 170.342 219.532C170.342 221.359 171.884 222.84 173.787 222.84Z" fill="#F2F2F2"/>
<path opacity="0.77" d="M180.147 212.914C182.986 212.914 185.288 210.704 185.288 207.977C185.288 205.25 182.986 203.04 180.147 203.04C177.308 203.04 175.006 205.25 175.006 207.977C175.006 210.704 177.308 212.914 180.147 212.914Z" fill="#F2F2F2"/>
<path d="M129.85 181.051C137.929 181.051 144.478 174.762 144.478 167.003C144.478 159.244 137.929 152.954 129.85 152.954C121.771 152.954 115.222 159.244 115.222 167.003C115.222 174.762 121.771 181.051 129.85 181.051Z" fill="#65706C"/>
</svg>
