<svg width="2030" height="1763" viewBox="0 0 2030 1763" fill="none" xmlns="http://www.w3.org/2000/svg"> <g clip-path="url(#clip0)"> <g opacity="0.2"> <path opacity="0.2" d="M1539.99 200.67H505.051V1272.03H1539.99V200.67Z" fill="#D9FAFF"/> <path opacity="0.2" d="M939.683 221.91L780.063 724.21H689.293L848.923 221.91H939.683Z" fill="white"/> <path opacity="0.2" d="M799.561 221.91L639.941 724.21H587.391L747.001 221.91H799.561Z" fill="white"/> <path opacity="0.2" d="M1476.88 217.36L1317.25 719.66H1226.49L1386.12 217.36H1476.88Z" fill="white"/> <path opacity="0.2" d="M1336.75 217.36L1177.14 719.66H1124.59L1284.2 217.36H1336.75Z" fill="white"/> <path opacity="0.2" d="M1476.88 756.08L1317.25 1258.37H1226.49L1386.12 756.08H1476.88Z" fill="white"/> <path opacity="0.2" d="M1336.75 756.08L1177.14 1258.37H1124.59L1284.2 756.08H1336.75Z" fill="white"/> <path opacity="0.2" d="M939.683 756.08L780.063 1258.37H689.293L848.923 756.08H939.683Z" fill="white"/> <path opacity="0.2" d="M799.561 756.08L639.941 1258.37H587.391L747.001 756.08H799.561Z" fill="white"/> <path opacity="0.2" d="M1040.73 1274.65V220.81C1040.73 216.392 1037.15 212.81 1032.73 212.81H1010.79C1006.37 212.81 1002.79 216.392 1002.79 220.81L1002.79 1274.65C1002.79 1279.07 1006.37 1282.65 1010.79 1282.65H1032.73C1037.15 1282.65 1040.73 1279.07 1040.73 1274.65Z" fill="#E2B38E"/> <path opacity="0.2" d="M486.852 217.78L486.852 1271.62C486.852 1276.04 490.433 1279.62 494.852 1279.62H516.792C521.21 1279.62 524.792 1276.04 524.792 1271.62L524.792 217.78C524.792 213.362 521.21 209.78 516.792 209.78H494.852C490.433 209.78 486.852 213.362 486.852 217.78Z" fill="#E2B38E"/> <path opacity="0.2" d="M1521.78 217.78V1271.62C1521.78 1276.04 1525.36 1279.62 1529.78 1279.62H1551.72C1556.14 1279.62 1559.72 1276.04 1559.72 1271.62V217.78C1559.72 213.362 1556.14 209.78 1551.72 209.78H1529.78C1525.36 209.78 1521.78 213.362 1521.78 217.78Z" fill="#E2B38E"/> <path opacity="0.2" d="M1031.21 1287.65H1009.27C1005.82 1287.65 1002.52 1286.28 1000.08 1283.84C997.639 1281.4 996.27 1278.1 996.27 1274.65V220.81C996.27 217.362 997.639 214.056 1000.08 211.618C1002.52 209.18 1005.82 207.81 1009.27 207.81H1031.21C1034.66 207.81 1037.96 209.18 1040.4 211.618C1042.84 214.056 1044.21 217.362 1044.21 220.81V1274.65C1044.21 1278.1 1042.84 1281.4 1040.4 1283.84C1037.96 1286.28 1034.66 1287.65 1031.21 1287.65ZM1009.28 217.81C1008.48 217.81 1007.72 218.126 1007.16 218.689C1006.6 219.251 1006.28 220.014 1006.28 220.81V1274.65C1006.28 1275.45 1006.6 1276.21 1007.16 1276.77C1007.72 1277.33 1008.48 1277.65 1009.28 1277.65H1031.22C1032.02 1277.65 1032.78 1277.33 1033.34 1276.77C1033.9 1276.21 1034.22 1275.45 1034.22 1274.65V220.81C1034.22 220.014 1033.9 219.251 1033.34 218.689C1032.78 218.126 1032.02 217.81 1031.22 217.81H1009.28Z" fill="#385868"/> <path opacity="0.2" d="M515.262 1284.62H493.332C489.884 1284.62 486.578 1283.25 484.14 1280.81C481.702 1278.37 480.332 1275.07 480.332 1271.62V217.78C480.332 214.332 481.702 211.026 484.14 208.588C486.578 206.15 489.884 204.78 493.332 204.78H515.272C518.72 204.78 522.026 206.15 524.464 208.588C526.902 211.026 528.272 214.332 528.272 217.78V1271.62C528.272 1273.33 527.935 1275.02 527.282 1276.6C526.628 1278.18 525.669 1279.61 524.461 1280.82C523.253 1282.02 521.818 1282.98 520.24 1283.63C518.662 1284.29 516.97 1284.62 515.262 1284.62ZM493.332 214.78C492.536 214.78 491.773 215.096 491.211 215.659C490.648 216.221 490.332 216.984 490.332 217.78V1271.62C490.332 1272.42 490.648 1273.18 491.211 1273.74C491.773 1274.3 492.536 1274.62 493.332 1274.62H515.272C516.068 1274.62 516.831 1274.3 517.393 1273.74C517.956 1273.18 518.272 1272.42 518.272 1271.62V217.78C518.272 216.984 517.956 216.221 517.393 215.659C516.831 215.096 516.068 214.78 515.272 214.78H493.332Z" fill="#385868"/> <path opacity="0.2" d="M1550.2 1284.62H1528.26C1524.81 1284.62 1521.51 1283.25 1519.07 1280.81C1516.63 1278.37 1515.26 1275.07 1515.26 1271.62V217.78C1515.26 214.332 1516.63 211.026 1519.07 208.588C1521.51 206.15 1524.81 204.78 1528.26 204.78H1550.2C1553.65 204.78 1556.96 206.15 1559.39 208.588C1561.83 211.026 1563.2 214.332 1563.2 217.78V1271.62C1563.2 1275.07 1561.83 1278.37 1559.39 1280.81C1556.96 1283.25 1553.65 1284.62 1550.2 1284.62ZM1528.26 214.78C1527.47 214.78 1526.7 215.096 1526.14 215.659C1525.58 216.221 1525.26 216.984 1525.26 217.78V1271.62C1525.26 1272.42 1525.58 1273.18 1526.14 1273.74C1526.7 1274.3 1527.47 1274.62 1528.26 1274.62H1550.2C1551 1274.62 1551.76 1274.3 1552.32 1273.74C1552.89 1273.18 1553.2 1272.42 1553.2 1271.62V217.78C1553.2 216.984 1552.89 216.221 1552.32 215.659C1551.76 215.096 1551 214.78 1550.2 214.78H1528.26Z" fill="#385868"/> <path opacity="0.2" d="M1560.82 180.94H488.801C484.383 180.94 480.801 184.522 480.801 188.94V210.88C480.801 215.298 484.383 218.88 488.801 218.88H1560.82C1565.24 218.88 1568.82 215.298 1568.82 210.88V188.94C1568.82 184.522 1565.24 180.94 1560.82 180.94Z" fill="#E2B38E"/> <path opacity="0.2" d="M1559.28 223.88H487.281C483.833 223.88 480.527 222.51 478.089 220.072C475.651 217.634 474.281 214.328 474.281 210.88V188.94C474.281 185.492 475.651 182.186 478.089 179.748C480.527 177.31 483.833 175.94 487.281 175.94H1559.28C1562.73 175.94 1566.04 177.31 1568.47 179.748C1570.91 182.186 1572.28 185.492 1572.28 188.94V210.88C1572.28 214.328 1570.91 217.634 1568.47 220.072C1566.04 222.51 1562.73 223.88 1559.28 223.88ZM487.281 185.94C486.486 185.94 485.723 186.256 485.16 186.819C484.597 187.381 484.281 188.144 484.281 188.94V210.88C484.281 211.676 484.597 212.439 485.16 213.001C485.723 213.564 486.486 213.88 487.281 213.88H1559.28C1560.08 213.88 1560.84 213.564 1561.4 213.001C1561.97 212.439 1562.28 211.676 1562.28 210.88V188.94C1562.28 188.144 1561.97 187.381 1561.4 186.819C1560.84 186.256 1560.08 185.94 1559.28 185.94H487.281Z" fill="#385868"/> <path opacity="0.2" d="M1560.82 1252.3H488.801C484.383 1252.3 480.801 1255.88 480.801 1260.3V1282.24C480.801 1286.66 484.383 1290.24 488.801 1290.24H1560.82C1565.24 1290.24 1568.82 1286.66 1568.82 1282.24V1260.3C1568.82 1255.88 1565.24 1252.3 1560.82 1252.3Z" fill="#E2B38E"/> <path opacity="0.2" d="M1559.28 1295.24H487.281C483.833 1295.24 480.527 1293.87 478.089 1291.43C475.651 1288.99 474.281 1285.69 474.281 1282.24V1260.3C474.281 1256.85 475.651 1253.55 478.089 1251.11C480.527 1248.67 483.833 1247.3 487.281 1247.3H1559.28C1562.73 1247.3 1566.04 1248.67 1568.47 1251.11C1570.91 1253.55 1572.28 1256.85 1572.28 1260.3V1282.24C1572.28 1285.69 1570.91 1288.99 1568.47 1291.43C1566.04 1293.87 1562.73 1295.24 1559.28 1295.24ZM487.281 1257.3C486.486 1257.3 485.723 1257.62 485.16 1258.18C484.597 1258.74 484.281 1259.5 484.281 1260.3V1282.24C484.281 1283.04 484.597 1283.8 485.16 1284.36C485.723 1284.92 486.486 1285.24 487.281 1285.24H1559.28C1560.08 1285.24 1560.84 1284.92 1561.4 1284.36C1561.97 1283.8 1562.28 1283.04 1562.28 1282.24V1260.3C1562.28 1259.5 1561.97 1258.74 1561.4 1258.18C1560.84 1257.62 1560.08 1257.3 1559.28 1257.3H487.281Z" fill="#385868"/> <path opacity="0.2" d="M1560.82 721.17H488.801C484.383 721.17 480.801 724.752 480.801 729.17V751.11C480.801 755.528 484.383 759.11 488.801 759.11H1560.82C1565.24 759.11 1568.82 755.528 1568.82 751.11V729.17C1568.82 724.752 1565.24 721.17 1560.82 721.17Z" fill="#E2B38E"/> <path opacity="0.2" d="M1559.28 764.11H487.281C483.833 764.11 480.527 762.74 478.089 760.302C475.651 757.864 474.281 754.558 474.281 751.11V729.17C474.281 725.722 475.651 722.416 478.089 719.978C480.527 717.54 483.833 716.17 487.281 716.17H1559.28C1562.73 716.17 1566.04 717.54 1568.47 719.978C1570.91 722.416 1572.28 725.722 1572.28 729.17V751.11C1572.28 754.558 1570.91 757.864 1568.47 760.302C1566.04 762.74 1562.73 764.11 1559.28 764.11ZM487.281 726.17C486.486 726.17 485.723 726.486 485.16 727.049C484.597 727.611 484.281 728.374 484.281 729.17V751.11C484.281 751.906 484.597 752.669 485.16 753.231C485.723 753.794 486.486 754.11 487.281 754.11H1559.28C1560.08 754.11 1560.84 753.794 1561.4 753.231C1561.97 752.669 1562.28 751.906 1562.28 751.11V729.17C1562.28 728.374 1561.97 727.611 1561.4 727.049C1560.84 726.486 1560.08 726.17 1559.28 726.17H487.281Z" fill="#385868"/> </g> <g opacity="0.2"> <path opacity="0.2" d="M151.379 1050.15V1058.15H275.379V1050.15H151.379Z" fill="#385868"/> <path opacity="0.2" d="M313.363 1083.96L313.324 1091.96L437.323 1092.57L437.362 1084.57L313.363 1083.96Z" fill="#385868"/> <path opacity="0.2" d="M158.699 1145.55L157.98 1217.45L165.98 1217.53L166.699 1145.63L158.699 1145.55Z" fill="#385868"/> <path opacity="0.2" d="M327.262 1016.88L326.543 1088.78L334.543 1088.86L335.262 1016.96L327.262 1016.88Z" fill="#385868"/> <path opacity="0.2" d="M217.04 1114.4H372.81C383.171 1114.4 391.57 1106 391.57 1095.64V1077.76C391.57 1067.4 383.171 1059 372.81 1059H217.04C206.679 1059 198.28 1067.4 198.28 1077.76V1095.64C198.28 1106 206.679 1114.4 217.04 1114.4Z" fill="#F2F2F2"/> <path opacity="0.2" d="M372.812 1118.41H217.002C210.968 1118.4 205.184 1116 200.917 1111.73C196.651 1107.47 194.25 1101.68 194.242 1095.65V1077.78C194.245 1071.74 196.643 1065.95 200.91 1061.68C205.177 1057.41 210.965 1055.01 217.002 1055H372.812C378.846 1055.01 384.631 1057.41 388.897 1061.68C393.164 1065.94 395.564 1071.73 395.572 1077.76V1095.63C395.57 1101.67 393.171 1107.46 388.904 1111.73C384.637 1116 378.85 1118.4 372.812 1118.41ZM217.002 1063C213.089 1063.01 209.338 1064.56 206.571 1067.33C203.804 1070.1 202.247 1073.85 202.242 1077.76V1095.63C202.242 1099.55 203.797 1103.3 206.564 1106.07C209.332 1108.85 213.086 1110.4 217.002 1110.41H372.812C376.725 1110.4 380.476 1108.85 383.243 1106.08C386.01 1103.31 387.567 1099.56 387.572 1095.65V1077.78C387.572 1073.86 386.018 1070.11 383.25 1067.34C380.483 1064.56 376.729 1063.01 372.812 1063H217.002Z" fill="#385868"/> <path opacity="0.2" d="M84.0794 1169.8H239.849C250.21 1169.8 258.609 1161.4 258.609 1151.04V1133.16C258.609 1122.8 250.21 1114.4 239.849 1114.4H84.0794C73.7185 1114.4 65.3194 1122.8 65.3194 1133.16V1151.04C65.3194 1161.4 73.7185 1169.8 84.0794 1169.8Z" fill="#F2F2F2"/> <path opacity="0.2" d="M239.85 1173.81H84.0903C81.0975 1173.81 78.1345 1173.22 75.3705 1172.07C72.6065 1170.92 70.0956 1169.24 67.9812 1167.12C65.8668 1165 64.1903 1162.49 63.0475 1159.72C61.9046 1156.96 61.3177 1153.99 61.3203 1151V1133.13C61.3283 1127.1 63.7287 1121.31 67.9953 1117.05C72.2619 1112.78 78.0464 1110.38 84.0803 1110.37H239.85C245.884 1110.38 251.669 1112.78 255.935 1117.05C260.202 1121.31 262.602 1127.1 262.61 1133.13V1151C262.616 1157.04 260.221 1162.84 255.953 1167.12C251.685 1171.39 245.893 1173.8 239.85 1173.81ZM84.0903 1118.41C80.1773 1118.42 76.4262 1119.97 73.6593 1122.74C70.8924 1125.51 69.3356 1129.26 69.3303 1133.17V1151C69.3356 1154.91 70.8924 1158.66 73.6593 1161.43C76.4262 1164.2 80.1773 1165.75 84.0903 1165.76H239.85C243.763 1165.75 247.514 1164.2 250.281 1161.43C253.048 1158.66 254.605 1154.91 254.61 1151V1133.13C254.605 1129.22 253.048 1125.47 250.281 1122.7C247.514 1119.93 243.763 1118.38 239.85 1118.37L84.0903 1118.41Z" fill="#385868"/> </g> <g opacity="0.2"> <path opacity="0.2" d="M90.3516 223.04V231.04H214.352V223.04H90.3516Z" fill="#385868"/> <path opacity="0.2" d="M252.043 252.777L252.004 260.777L376.002 261.383L376.042 253.383L252.043 252.777Z" fill="#385868"/> <path opacity="0.2" d="M97.2268 312.984L96.5078 384.884L104.508 384.964L105.227 313.064L97.2268 312.984Z" fill="#385868"/> <path opacity="0.2" d="M265.809 184.329L265.09 256.229L273.09 256.309L273.809 184.409L265.809 184.329Z" fill="#385868"/> <path opacity="0.2" d="M155.72 283.26H311.49C321.851 283.26 330.25 274.861 330.25 264.5V246.62C330.25 236.259 321.851 227.86 311.49 227.86L155.72 227.86C145.359 227.86 136.96 236.259 136.96 246.62V264.5C136.96 274.861 145.359 283.26 155.72 283.26Z" fill="#F2F2F2"/> <path opacity="0.2" d="M311.48 287.25H155.73C149.701 287.234 143.925 284.83 139.664 280.565C135.404 276.299 133.008 270.519 133 264.49V246.62C133.008 240.586 135.408 234.802 139.675 230.535C143.942 226.269 149.726 223.868 155.76 223.86H311.48C317.514 223.868 323.298 226.269 327.565 230.535C331.832 234.802 334.232 240.586 334.24 246.62V264.49C334.232 270.524 331.832 276.308 327.565 280.575C323.298 284.842 317.514 287.242 311.48 287.25ZM155.72 231.85C151.812 231.866 148.07 233.429 145.311 236.197C142.553 238.965 141.003 242.712 141 246.62V264.49C141.005 268.403 142.562 272.154 145.329 274.921C148.096 277.688 151.847 279.245 155.76 279.25H311.48C315.393 279.245 319.144 277.688 321.911 274.921C324.678 272.154 326.235 268.403 326.24 264.49V246.62C326.235 242.707 324.678 238.956 321.911 236.189C319.144 233.422 315.393 231.865 311.48 231.86L155.72 231.85Z" fill="#385868"/> <path opacity="0.2" d="M22.7591 338.65H178.529C188.89 338.65 197.289 330.251 197.289 319.89V302.01C197.289 291.649 188.89 283.25 178.529 283.25H22.7591C12.3982 283.25 3.99907 291.649 3.99907 302.01V319.89C3.99907 330.251 12.3982 338.65 22.7591 338.65Z" fill="#F2F2F2"/> <path opacity="0.2" d="M178.52 342.66H22.76C16.7244 342.652 10.9384 340.25 6.67149 335.981C2.40459 331.713 0.00529151 325.926 0 319.89L0 302C0.0079376 295.966 2.40841 290.182 6.67502 285.915C10.9416 281.648 16.7261 279.248 22.76 279.24H178.52C184.556 279.245 190.343 281.645 194.611 285.911C198.88 290.178 201.282 295.964 201.29 302V319.87C201.29 325.911 198.892 331.705 194.622 335.978C190.352 340.251 184.561 342.655 178.52 342.66ZM22.76 287.25C18.8488 287.255 15.0991 288.811 12.3325 291.575C9.56587 294.34 8.00794 298.089 8 302V319.87C8.00529 323.783 9.56206 327.534 12.3289 330.301C15.0958 333.068 18.847 334.625 22.76 334.63H178.52C182.433 334.625 186.184 333.068 188.951 330.301C191.718 327.534 193.275 323.783 193.28 319.87V302C193.275 298.087 191.718 294.336 188.951 291.569C186.184 288.802 182.433 287.245 178.52 287.24L22.76 287.25Z" fill="#385868"/> </g> <g opacity="0.2"> <path opacity="0.2" d="M1744.7 1087.88L1744.66 1095.88L1868.66 1096.48L1868.7 1088.48L1744.7 1087.88Z" fill="#385868"/> <path opacity="0.2" d="M1905.61 1116.8L1905.57 1124.8L2029.58 1125.4L2029.62 1117.4L1905.61 1116.8Z" fill="#385868"/> <path opacity="0.2" d="M1753.62 1178.4L1752.9 1250.3L1760.9 1250.38L1761.62 1178.48L1753.62 1178.4Z" fill="#385868"/> <path opacity="0.2" d="M1922.18 1049.75L1921.46 1121.65L1929.46 1121.73L1930.18 1049.83L1922.18 1049.75Z" fill="#385868"/> <path opacity="0.2" d="M1809.26 1147.25H1965.03C1975.39 1147.25 1983.79 1138.85 1983.79 1128.49V1110.61C1983.79 1100.25 1975.39 1091.85 1965.03 1091.85H1809.26C1798.9 1091.85 1790.5 1100.25 1790.5 1110.61V1128.49C1790.5 1138.85 1798.9 1147.25 1809.26 1147.25Z" fill="#F2F2F2"/> <path opacity="0.2" d="M1965 1151.26H1809.27C1803.23 1151.25 1797.45 1148.85 1793.18 1144.58C1788.92 1140.32 1786.52 1134.53 1786.51 1128.5V1110.63C1786.52 1104.6 1788.92 1098.81 1793.18 1094.54C1797.45 1090.28 1803.23 1087.88 1809.27 1087.87H1965C1971.03 1087.88 1976.82 1090.28 1981.08 1094.54C1985.35 1098.81 1987.75 1104.6 1987.76 1110.63V1128.5C1987.75 1134.53 1985.35 1140.32 1981.08 1144.58C1976.82 1148.85 1971.03 1151.25 1965 1151.26ZM1809.24 1095.86C1805.32 1095.86 1801.57 1097.42 1798.81 1100.19C1796.04 1102.96 1794.48 1106.71 1794.48 1110.62V1128.49C1794.48 1132.4 1796.04 1136.15 1798.81 1138.92C1801.57 1141.69 1805.32 1143.24 1809.24 1143.25H1965C1968.91 1143.24 1972.66 1141.69 1975.43 1138.92C1978.2 1136.15 1979.75 1132.4 1979.76 1128.49V1110.62C1979.75 1106.71 1978.2 1102.96 1975.43 1100.19C1972.66 1097.42 1968.91 1095.86 1965 1095.86H1809.24Z" fill="#385868"/> <path opacity="0.2" d="M1676.3 1202.66H1832.07C1842.43 1202.66 1850.83 1194.26 1850.83 1183.9V1166.02C1850.83 1155.66 1842.43 1147.26 1832.07 1147.26H1676.3C1665.94 1147.26 1657.54 1155.66 1657.54 1166.02V1183.9C1657.54 1194.26 1665.94 1202.66 1676.3 1202.66Z" fill="#F2F2F2"/> <path opacity="0.2" d="M1832.06 1206.66H1676.3C1670.27 1206.65 1664.48 1204.25 1660.21 1199.98C1655.95 1195.72 1653.55 1189.93 1653.54 1183.9V1166C1653.55 1159.97 1655.95 1154.18 1660.21 1149.91C1664.48 1145.65 1670.27 1143.25 1676.3 1143.24H1832.06C1838.09 1143.25 1843.88 1145.65 1848.14 1149.91C1852.41 1154.18 1854.81 1159.97 1854.82 1166V1183.87C1854.82 1189.91 1852.42 1195.7 1848.15 1199.97C1843.89 1204.25 1838.1 1206.65 1832.06 1206.66ZM1676.3 1151.26C1672.39 1151.27 1668.63 1152.82 1665.87 1155.59C1663.1 1158.36 1661.54 1162.11 1661.54 1166.02V1183.89C1661.54 1187.8 1663.1 1191.55 1665.87 1194.32C1668.63 1197.09 1672.39 1198.64 1676.3 1198.65H1832.06C1835.97 1198.64 1839.72 1197.09 1842.49 1194.32C1845.26 1191.55 1846.81 1187.8 1846.82 1183.89V1166C1846.81 1162.09 1845.26 1158.34 1842.49 1155.57C1839.72 1152.8 1835.97 1151.25 1832.06 1151.24L1676.3 1151.26Z" fill="#385868"/> </g> <g opacity="0.2"> <path opacity="0.2" d="M1744.71 39.8844L1744.67 47.8843L1868.68 48.4903L1868.72 40.4904L1744.71 39.8844Z" fill="#385868"/> <path opacity="0.2" d="M1905.61 68.8077L1905.57 76.8076L2029.57 77.4136L2029.61 69.4137L1905.61 68.8077Z" fill="#385868"/> <path opacity="0.2" d="M1753.57 128.644L1752.85 200.544L1760.85 200.624L1761.57 128.724L1753.57 128.644Z" fill="#385868"/> <path opacity="0.2" d="M1922.14 -0.010376L1921.43 71.8896L1929.43 71.9696L1930.14 0.069624L1922.14 -0.010376Z" fill="#385868"/> <path opacity="0.2" d="M1809.26 99.29L1965.03 99.29C1975.39 99.29 1983.79 90.8909 1983.79 80.53V62.65C1983.79 52.2892 1975.39 43.89 1965.03 43.89L1809.26 43.89C1798.9 43.89 1790.5 52.2892 1790.5 62.65V80.53C1790.5 90.8909 1798.9 99.29 1809.26 99.29Z" fill="#F2F2F2"/> <path opacity="0.2" d="M1965 103.29H1809.27C1803.23 103.282 1797.45 100.881 1793.18 96.6149C1788.92 92.3483 1786.52 86.5638 1786.51 80.5299V62.6499C1786.52 56.616 1788.92 50.8315 1793.18 46.5649C1797.45 42.2983 1803.23 39.8978 1809.27 39.8899H1965C1971.03 39.8978 1976.82 42.2983 1981.08 46.5649C1985.35 50.8315 1987.75 56.616 1987.76 62.6499V80.5199C1987.75 86.5555 1985.35 92.3426 1981.09 96.6113C1976.82 100.88 1971.03 103.282 1965 103.29ZM1809.24 47.8899C1805.32 47.8952 1801.57 49.452 1798.81 52.2188C1796.04 54.9857 1794.48 58.7369 1794.48 62.6499V80.5199C1794.48 84.4329 1796.04 88.1841 1798.81 90.9509C1801.57 93.7178 1805.32 95.2746 1809.24 95.2799H1965C1968.91 95.2746 1972.66 93.7178 1975.43 90.9509C1978.2 88.1841 1979.75 84.4329 1979.76 80.5199V62.6499C1979.76 58.7352 1978.2 54.9814 1975.43 52.2124C1972.67 49.4433 1968.91 47.8852 1965 47.8799L1809.24 47.8899Z" fill="#385868"/> <path opacity="0.2" d="M1676.3 154.68L1832.07 154.68C1842.43 154.68 1850.83 146.281 1850.83 135.92V118.04C1850.83 107.679 1842.43 99.2799 1832.07 99.2799L1676.3 99.2799C1665.94 99.2799 1657.54 107.679 1657.54 118.04V135.92C1657.54 146.281 1665.94 154.68 1676.3 154.68Z" fill="#F2F2F2"/> <path opacity="0.2" d="M1832.06 158.69H1676.3C1670.27 158.682 1664.48 156.282 1660.21 152.015C1655.95 147.748 1653.55 141.964 1653.54 135.93V118C1653.55 111.966 1655.95 106.182 1660.21 101.915C1664.48 97.6484 1670.27 95.2479 1676.3 95.24H1832.06C1838.09 95.2453 1843.88 97.6446 1848.15 101.911C1852.42 106.178 1854.82 111.964 1854.83 118V135.87C1854.83 138.864 1854.25 141.829 1853.1 144.596C1851.96 147.363 1850.29 149.878 1848.17 151.997C1846.06 154.116 1843.55 155.798 1840.78 156.947C1838.02 158.095 1835.05 158.687 1832.06 158.69ZM1676.3 103.29C1672.39 103.295 1668.65 104.845 1665.89 107.601C1663.12 110.357 1661.56 114.096 1661.54 118V135.87C1661.54 139.783 1663.1 143.534 1665.87 146.301C1668.63 149.068 1672.39 150.625 1676.3 150.63H1832.06C1835.97 150.625 1839.72 149.068 1842.49 146.301C1845.26 143.534 1846.81 139.783 1846.82 135.87V118C1846.81 114.087 1845.26 110.336 1842.49 107.569C1839.72 104.802 1835.97 103.245 1832.06 103.24L1676.3 103.29Z" fill="#385868"/> </g> <path d="M1675.78 1752.24H312.781V1762.24H1675.78V1752.24Z" fill="#385868"/> <path d="M1828.78 1752.24H1703.78V1762.24H1828.78V1752.24Z" fill="#385868"/> <path d="M291.781 1752.24H204.781V1762.24H291.781V1752.24Z" fill="#385868"/> <path d="M1120.67 957.38V1007C1120.67 1020.15 1125.9 1032.77 1135.2 1042.07C1144.5 1051.37 1157.11 1056.59 1170.26 1056.59H1230.77C1258.04 1056.59 1284.19 1067.42 1303.47 1086.7C1322.75 1105.98 1333.58 1132.13 1333.58 1159.4V1443.13H795.102V1159.4C795.104 1132.13 805.937 1105.99 825.217 1086.71C844.498 1067.43 870.646 1056.6 897.912 1056.6H958.422C964.934 1056.6 971.382 1055.31 977.398 1052.82C983.414 1050.33 988.88 1046.67 993.484 1042.07C998.088 1037.46 1001.74 1031.99 1004.23 1025.98C1006.72 1019.96 1008 1013.51 1008 1007V957.38" fill="#FFC6AD"/> <path d="M1329.44 1162.5V1446.24H795.102V1162.5C795.104 1135.23 805.937 1109.09 825.217 1089.81C844.498 1070.53 870.646 1059.7 897.912 1059.7H926.682C929.392 1085.47 947.502 1109.92 969.942 1122.85C992.732 1135.98 1019.51 1140.49 1045.78 1141.68C1079.47 1143.21 1113.97 1139.46 1144.78 1125.74C1174.03 1112.74 1199.78 1089.05 1212.51 1059.74H1226.63C1253.89 1059.74 1280.03 1070.56 1299.31 1089.83C1318.59 1109.1 1329.43 1135.24 1329.44 1162.5Z" fill="#82F0B7"/> <path d="M1327.37 1162.5V1211.08C1327.37 1183.81 1316.54 1157.66 1297.26 1138.38C1277.98 1119.1 1251.83 1108.27 1224.56 1108.27H1210.44C1197.68 1137.62 1171.96 1161.27 1142.71 1174.27C1111.9 1187.99 1077.4 1191.74 1043.71 1190.21C1017.44 1189.02 990.66 1184.5 967.87 1171.38C945.42 1158.45 927.31 1134 924.61 1108.23H895.84C882.333 1108.23 868.957 1110.88 856.478 1116.05C843.998 1121.22 832.659 1128.79 823.109 1138.35C813.558 1147.9 805.984 1159.24 800.817 1171.72C795.651 1184.2 792.995 1197.57 793 1211.08V1162.5C793.001 1149 795.663 1135.63 800.832 1123.15C806.001 1110.68 813.577 1099.34 823.126 1089.8C832.676 1080.25 844.013 1072.68 856.489 1067.52C868.966 1062.35 882.337 1059.7 895.84 1059.7H924.61C927.32 1085.47 945.43 1109.92 967.87 1122.85C990.66 1135.98 1017.44 1140.49 1043.71 1141.68C1077.4 1143.21 1111.9 1139.46 1142.71 1125.74C1171.96 1112.74 1197.71 1089.05 1210.44 1059.74H1224.56C1251.82 1059.74 1277.96 1070.56 1297.24 1089.83C1316.52 1109.1 1327.36 1135.24 1327.37 1162.5Z" fill="#BEF8D9"/> <path d="M1118.6 964.61V1002.32L1117.7 1002.54C1081.1 1011.28 1043.15 1012.88 1005.94 1007.25V964.61H1118.6Z" fill="#E39493"/> <path d="M1110.53 957.38C1110.53 974.15 1110.23 990.94 1110.53 1007.7C1110.68 1016.11 1112.72 1024.38 1116.5 1031.89C1120.27 1039.41 1125.69 1045.97 1132.35 1051.11C1142.9 1059.22 1155.35 1062.59 1168.54 1062.59C1187.72 1062.59 1206.9 1062.51 1226.08 1062.59C1257.55 1062.72 1287.74 1077.74 1305.84 1103.73C1318.33 1121.66 1323.41 1142.07 1323.41 1163.73V1407.83C1323.41 1418.96 1322.53 1430.51 1323.41 1441.62C1323.41 1442.13 1323.41 1442.62 1323.41 1443.18L1329.41 1437.18H812.812C806.012 1437.18 798.672 1436.39 791.892 1437.18C791.582 1437.2 791.272 1437.2 790.962 1437.18L796.962 1443.18V1169.8C796.962 1154.45 797.752 1139.64 803.232 1124.99C814.892 1093.83 842.972 1070.68 875.482 1064.31C884.992 1062.45 894.552 1062.6 904.182 1062.6H939.762C948.492 1062.6 957.442 1063.13 966.032 1061.34C974.134 1059.58 981.74 1056.03 988.297 1050.96C994.854 1045.88 1000.2 1039.41 1003.93 1032.01C1009.17 1021.44 1009.87 1010.56 1009.87 999.06V957.38C1009.87 949.66 997.872 949.65 997.872 957.38C997.872 974.15 998.172 990.94 997.872 1007.7C997.694 1015.77 995.303 1023.64 990.959 1030.44C986.616 1037.25 980.487 1042.73 973.242 1046.29C964.102 1050.8 954.502 1050.59 944.652 1050.59H909.652C901.162 1050.59 892.542 1050.25 884.072 1051.05C867.294 1052.64 851.105 1058.06 836.759 1066.91C822.412 1075.75 810.291 1087.77 801.332 1102.05C789.672 1120.75 785.002 1141.87 785.002 1163.69V1344.6C785.002 1376.89 784.242 1409.29 785.002 1441.6C785.002 1442.12 785.002 1442.6 785.002 1443.16C785.025 1444.74 785.665 1446.26 786.785 1447.38C787.905 1448.5 789.418 1449.14 791.002 1449.16H1263.27C1284.98 1449.16 1306.84 1449.94 1328.54 1449.16C1328.85 1449.16 1329.16 1449.16 1329.47 1449.16C1331.06 1449.14 1332.57 1448.5 1333.69 1447.38C1334.81 1446.26 1335.45 1444.74 1335.47 1443.16V1169.8C1335.47 1154.33 1334.79 1139.15 1329.67 1124.3C1324.18 1108.48 1315.15 1094.12 1303.27 1082.32C1291.4 1070.52 1276.98 1061.58 1261.13 1056.18C1238.95 1048.7 1214.99 1050.6 1191.93 1050.6C1183.43 1050.6 1174.93 1050.69 1166.42 1050.6C1159.07 1050.6 1151.83 1048.76 1145.36 1045.25C1138.9 1041.74 1133.42 1036.66 1129.42 1030.49C1123.19 1020.66 1122.57 1010.25 1122.57 999.07V957.38C1122.57 949.66 1110.57 949.65 1110.57 957.38H1110.53Z" fill="#385868"/> <path d="M992.77 375.48C999.89 395.48 1021.44 406.08 1041.58 412.75C1077.93 424.765 1116.05 430.57 1154.33 429.92C1181.67 429.44 1209.33 425.7 1236.12 431.32C1262.91 436.94 1289.47 454.8 1295.12 481.55" fill="#EF7679"/> <path d="M966.73 288.37C1021.52 247.69 1087.92 219.28 1156.13 221.37C1224.34 223.46 1293.52 260.15 1322.83 321.77C1362.34 404.77 1325.99 507.24 1313.06 592.87C1298.74 687.974 1300.95 784.836 1319.58 879.19C1328.19 922.68 1340.68 966.44 1363.92 1004.56C1369.49 1013.7 1380.05 1023.11 1384.11 1032.68C1389.28 1044.87 1385.11 1045.28 1370.82 1049.27C1349.55 1055.2 1326.45 1052.6 1304.82 1051.02C1280.76 1049.27 1256.46 1047.23 1233.52 1039.8C1195.52 1027.49 1156.52 993.42 1163.15 949.36" fill="#EF7679"/> <path d="M1373.92 1049.25C1352.65 1055.18 1329.55 1052.58 1307.92 1051.01C1283.86 1049.25 1259.56 1047.22 1236.62 1039.79C1198.62 1027.47 1159.62 993.41 1166.24 949.35L1153.9 908C1174.65 947 1214.43 976.26 1257.7 988.22C1290.97 997.42 1325.78 997.73 1359.97 992.22C1362.2 996.393 1364.56 1000.51 1367.03 1004.57C1372.6 1013.71 1383.16 1023.11 1387.21 1032.68C1392.39 1044.86 1388.22 1045.26 1373.92 1049.25Z" fill="#DB6A72"/> <path d="M916.002 545C973.682 539 959.532 465.33 982.002 411.87C996.382 377.65 1001.25 335.47 979.392 305.46C947.592 261.8 883.852 252.04 835.282 269.41C769.002 293.11 756.712 363.41 754.042 426.35C751.522 485.64 764.752 544.12 780.632 600.85C789.942 634 795.692 668 800.752 702C811.432 773.85 818.972 848 801.322 918.45C783.672 988.9 736.232 1055.81 667.172 1078.33C724.172 1087.28 784.732 1083.57 835.992 1057.13C887.252 1030.69 927.362 978.84 929.772 921.21" fill="#EF7679"/> <path d="M828.751 1027.2C791.631 1046.35 749.621 1053.56 707.641 1052.7C693.146 1063.39 677.045 1071.7 659.941 1077.34C716.941 1086.29 777.501 1082.58 828.761 1056.14C880.021 1029.7 920.131 977.85 922.541 920.22L921.821 900.42C915.801 954.35 877.291 1002.17 828.751 1027.2Z" fill="#DB6A72"/> <path d="M1226.21 427.5C1240.33 452.24 1248.09 479.85 1247.75 511.56C1247.27 556.71 1231.11 601.63 1238.75 645.48C1240.97 658.19 1245.11 670.06 1248.3 682.36C1267.2 755.16 1250.11 841.05 1211.9 896.95C1173.69 952.85 1117.3 980.18 1062.13 980.12H1061.77C1006.6 980.18 950.211 952.85 912.001 896.95C873.791 841.05 856.701 755.16 875.601 682.36C878.791 670.06 882.931 658.2 885.151 645.48C892.801 601.62 876.641 556.7 876.151 511.56C875.821 479.86 883.571 448.11 897.691 423.37L933.561 368.27L1035.88 338.27L1098.88 350.67" fill="#FFC6AD"/> <path d="M1211.92 864.91C1173.71 920.81 1117.32 948.14 1062.15 948.08H1061.79C1006.62 948.14 950.23 920.81 912.02 864.91C886.68 827.83 870.64 777.55 868.22 726.66C865.22 786.32 882.22 848.18 912.02 891.79C950.23 947.69 1006.62 975.02 1061.79 974.96H1062.15C1117.32 975.02 1173.71 947.69 1211.92 891.79C1241.73 848.18 1258.68 786.32 1255.72 726.67C1253.3 777.55 1237.26 827.83 1211.92 864.91Z" fill="#E39493"/> <path d="M1238.58 455.17C1238.45 455.17 1238.31 455.11 1238.18 455.08C1236.18 454.653 1234.16 454.28 1232.11 453.96C1207.24 450.01 1181.67 453.24 1156.39 453.68C1110.93 454.47 1031.39 453.28 1003.47 410.15C1030.58 451.96 902.729 523.07 876.469 537.38L874.469 518.64C874.259 516.64 874.089 514.56 875.159 512.91C876.159 511.65 877.488 510.691 878.999 510.14C924.469 488.68 957.579 457.67 977.929 410.84C978.059 410.53 978.189 410.22 978.309 409.91C978.889 408.51 979.459 407.1 979.989 405.67L980.079 405.45C984.969 393.871 988.496 381.763 990.589 369.37L996.889 390.59C997.179 387.59 997.359 384.53 997.429 381.53V381.26C997.489 378 997.429 374.76 997.179 371.54C996.675 363.817 995.165 356.192 992.689 348.86V344.15L1013.46 338.06C1011.92 346.64 1009 355.69 1012.23 363.79C1015.84 372.85 1025.81 377.39 1034.98 380.73C1082.83 398.141 1133.47 406.661 1184.39 405.87C1188.91 405.8 1193.44 405.65 1197.98 405.49L1224.17 421.3C1224.6 422.06 1225.04 422.84 1225.46 423.62L1225.07 423.56C1225.64 424.56 1226.19 425.56 1226.73 426.56C1231.58 435.697 1235.55 445.277 1238.58 455.17Z" fill="#E39493"/> <path d="M994.829 378.58C1001.95 398.58 1023.5 409.18 1043.64 415.85C1079.99 427.858 1118.11 433.656 1156.39 433C1183.73 432.52 1211.39 428.78 1238.18 434.4C1264.97 440.02 1291.53 457.88 1297.18 484.63L1318.06 326.91L994.559 310.37L994.829 378.58Z" fill="#EF7679"/> <path d="M1339.83 1058C1330.11 1058 1320.37 1057.25 1310.83 1056.51L1304.45 1056.03C1278.24 1054.12 1254.7 1051.94 1231.97 1044.58C1210.97 1037.79 1191.28 1025.12 1177.84 1009.81C1161.74 991.48 1154.94 970.32 1158.19 948.64L1168.08 950.12C1164.55 973.72 1175.52 992.02 1185.35 1003.21C1197.64 1017.21 1215.75 1028.82 1235.05 1035.07C1256.71 1042.07 1279.63 1044.2 1305.18 1046.07L1311.6 1046.56C1331.06 1048.06 1351.18 1049.56 1369.53 1044.49L1371.68 1043.9C1375.74 1042.78 1380.33 1041.51 1381.29 1040.56C1381.29 1040.22 1381.29 1038.8 1379.56 1034.68C1377.48 1029.78 1373.11 1024.5 1368.88 1019.39C1365.54 1015.55 1362.47 1011.48 1359.7 1007.22C1347.09 986.54 1328.7 950.87 1314.7 880.22C1295.87 785.322 1293.65 687.877 1308.14 592.22C1310.97 573.45 1314.84 554.31 1318.93 534.03C1333.48 461.98 1348.52 387.48 1318.33 324.03C1304.76 295.5 1281.67 271.17 1251.57 253.67C1222.43 236.885 1189.61 227.501 1156 226.34C1078.68 223.98 1012 260.97 969.73 292.34L963.73 284.34C1007.32 251.98 1076.1 213.93 1156.27 216.34C1191.55 217.392 1226.02 227.199 1256.57 244.88C1288.42 263.4 1312.89 289.23 1327.34 319.59C1341.53 349.41 1347.4 384.27 1345.34 426.17C1343.51 462.79 1336 499.95 1328.75 535.89C1324.68 556.04 1320.84 575.07 1318.04 593.59C1303.72 688.117 1305.91 784.412 1324.52 878.19C1338.2 947.28 1356.01 981.9 1368.23 1001.93C1370.76 1005.78 1373.54 1009.46 1376.57 1012.93C1381.26 1018.59 1386.1 1024.45 1388.75 1030.69C1390.75 1035.49 1392.38 1040.52 1390.29 1044.84C1387.94 1049.7 1382.52 1051.2 1374.29 1053.46L1372.17 1054.05C1361.58 1057 1350.72 1058 1339.83 1058Z" fill="#385868"/> <path d="M1062.35 985.77H1061.59C1000.99 985.77 944.98 954.67 907.9 900.42C867.2 840.89 852.29 753 870.78 681.76C871.85 677.62 873.04 673.5 874.2 669.51C876.658 661.55 878.677 653.461 880.25 645.28C884.71 619.73 880.87 594.05 876.8 566.87C874.14 549.06 871.38 530.64 871.19 512.27C870.84 479.45 878.73 447.27 893.39 421.55L902.08 426.55C888.48 450.37 880.87 481.55 881.2 512.21C881.39 529.89 884.09 547.96 886.7 565.44C890.7 592.22 894.85 619.9 890.11 647.05C888.474 655.584 886.374 664.024 883.82 672.33C882.69 676.25 881.52 680.33 880.48 684.33C862.67 752.95 877.01 837.55 916.17 894.84C951.36 946.32 1004.37 975.84 1061.61 975.84H1062.36C1119.62 975.84 1172.62 946.33 1207.81 894.84C1246.97 837.55 1261.32 752.95 1243.5 684.33C1242.5 680.33 1241.29 676.26 1240.16 672.33C1237.61 664.023 1235.51 655.584 1233.87 647.05C1229.13 619.91 1233.28 592.22 1237.28 565.44C1239.89 547.96 1242.6 529.89 1242.78 512.21C1243.09 482.52 1236.26 455.85 1221.89 430.69L1230.58 425.69C1245.85 452.44 1253.11 480.76 1252.78 512.28C1252.59 530.65 1249.83 549.07 1247.17 566.88C1243.1 594.06 1239.26 619.74 1243.72 645.29C1245.29 653.471 1247.31 661.56 1249.77 669.52C1250.92 673.52 1252.11 677.63 1253.19 681.77C1271.69 753.02 1256.77 840.9 1216.08 900.44C1179 954.67 1123 985.77 1062.35 985.77Z" fill="#385868"/> <path d="M980 417C959.57 465.6 918.281 508.1 867.591 519.89C863.034 520.956 858.419 521.761 853.77 522.3C835.65 503.87 802.94 466.8 804.44 440.58C806.51 404.41 867.44 346.53 881.95 325.86C888.6 316.36 896.34 291.81 902.771 268.03C904.281 268.26 905.771 268.52 907.281 268.79C934.941 273.95 960.61 287.55 977.39 310.59C999.2 340.64 994.35 382.82 980 417Z" fill="#EF7679"/> <path d="M721.57 1087.73C703.094 1087.69 684.648 1086.21 666.4 1083.31L645.82 1080.08L665.63 1073.62C727.22 1053.53 777.36 993.62 796.48 917.28C814.55 845.12 805.61 768.72 795.81 702.78C790.99 670.36 785.24 635.78 775.81 602.2C760.4 547 746.47 487.51 749.07 426.14C751.7 364.14 763.7 289.71 833.62 264.7C859.669 255.539 887.753 253.808 914.73 259.7C943.97 266.15 967.73 280.96 983.46 302.55C994.3 317.44 999.63 335.82 999.31 357.19C999.04 375.19 994.65 394.76 986.64 413.84C975.066 441.647 957.25 466.42 934.57 486.24C910.57 506.95 882.96 519.43 854.68 522.36L853.68 512.41C904.93 507.11 953.51 466.9 977.45 409.97C984.98 392.06 989.09 373.76 989.35 357.05C989.64 337.89 984.95 321.54 975.42 308.44C961.16 288.86 939.42 275.38 912.62 269.44C887.468 263.95 861.284 265.571 837 274.12C808.24 284.4 788.12 304.34 775.47 335.06C762.97 365.44 760.12 401.83 759.07 426.57C756.52 486.57 770.26 545.13 785.48 599.51C795.02 633.58 800.84 668.57 805.7 701.31C815.64 768.21 824.7 845.77 806.18 919.71C788.18 991.71 743.37 1049.81 687.03 1075.92C729.35 1080.29 784.14 1078.3 833.7 1052.73C886.82 1025.33 922.57 973.64 924.78 921.05L934.78 921.47C932.43 977.59 894.56 1032.6 838.3 1061.62C799.72 1081.51 758.3 1087.73 721.57 1087.73Z" fill="#385868"/> <path d="M1290.23 482.57C1284.54 455.7 1256.97 440.8 1235.09 436.2C1215.88 432.2 1195.52 433.15 1175.83 434.1C1168.83 434.44 1161.57 434.79 1154.42 434.91C1115.57 435.6 1076.88 429.71 1040 417.49C1011.33 408 994.34 394.81 988 377.16L997.42 373.8C1002.68 388.56 1017.19 399.43 1043.1 408C1078.91 419.864 1116.47 425.585 1154.19 424.92C1161.19 424.8 1168.36 424.45 1175.29 424.12C1195.61 423.12 1216.62 422.12 1237.09 426.43C1251.47 429.394 1264.98 435.61 1276.59 444.6C1289 454.47 1297.08 466.89 1299.96 480.51L1290.23 482.57Z" fill="#385868"/> <path d="M966.21 592.54C966.49 582.28 974.53 573.74 985.01 573.74C995.49 573.74 1003.54 582.28 1003.81 592.54C1004.02 600.25 1016.02 600.28 1015.81 592.54C1015.36 575.8 1002.1 561.74 985.01 561.74C967.92 561.74 954.66 575.81 954.21 592.54C954 600.26 966 600.26 966.21 592.54Z" fill="#385868"/> <path d="M1109.87 592.54C1110.15 582.28 1118.19 573.74 1128.67 573.74C1139.15 573.74 1147.2 582.28 1147.47 592.54C1147.68 600.25 1159.68 600.28 1159.47 592.54C1159.02 575.8 1145.76 561.74 1128.67 561.74C1111.58 561.74 1098.32 575.81 1097.87 592.54C1097.66 600.26 1109.66 600.26 1109.87 592.54Z" fill="#385868"/> <path d="M1075.65 702.09C1075.37 712.35 1067.33 720.89 1056.85 720.89C1046.37 720.89 1038.32 712.35 1038.05 702.09C1037.84 694.38 1025.84 694.35 1026.05 702.09C1026.5 718.83 1039.76 732.89 1056.85 732.89C1073.94 732.89 1087.2 718.82 1087.65 702.09C1087.86 694.37 1075.86 694.37 1075.65 702.09Z" fill="#385868"/> <path d="M1320.91 382.76C1319.27 361.98 1310.35 342.3 1298.36 325.25C1268.36 282.55 1218.7 255.25 1166.9 248.83C1115.1 242.41 1061.73 256.05 1017.1 283.11C1014.22 284.86 1011.19 286.87 1009.97 290.02C1008.43 294.02 1010.26 298.4 1011.76 302.4C1016.72 315.759 1018.01 330.202 1015.51 344.23C1013.96 352.82 1011.04 361.89 1014.27 370C1017.88 379.06 1027.85 383.61 1037.02 386.95C1084.88 404.356 1135.51 412.873 1186.43 412.08C1210.55 411.69 1235.04 409.25 1258.53 414.7C1282.02 420.15 1305.06 435.63 1311.32 458.93C1315.09 456.329 1318.15 452.839 1320.24 448.769C1322.34 444.699 1323.39 440.176 1323.32 435.6" fill="#DB6A72"/> <path d="M774.62 503.19C762.748 455.467 764.061 405.415 778.42 358.38C784.42 338.87 793.07 319.38 808.31 305.83C823.55 292.28 843.83 285.93 864.03 283.93C879.59 282.4 895.58 283.32 910.33 288.49C949.15 302.09 973.41 345.56 969.56 386.49C965.71 427.42 936.9 463.8 900 481.94C880.25 491.65 858.47 496.67 838.65 506.24C818.83 515.81 800.11 531.6 795.43 553.11" fill="#DB6A72"/> <path d="M1249.09 268.06C1255.34 272.452 1261.28 277.277 1266.86 282.5C1272.01 287.402 1276.85 292.612 1281.37 298.1C1288.94 307.425 1295.44 317.58 1300.72 328.37C1302.95 332.97 1304.72 337.24 1306.15 341.03C1306.83 342.94 1307.46 344.71 1308.01 346.36L1309.33 350.92L1309.85 352.86L1310.22 354.59C1310.44 355.67 1310.6 356.59 1310.71 357.33C1310.93 358.82 1310.92 359.64 1310.71 359.71C1310.5 359.78 1309.97 359.12 1309.28 357.79C1308.94 357.13 1308.54 356.3 1308.1 355.31L1307.4 353.72L1306.56 351.92L1304.65 347.69L1302.26 342.69C1300.51 339.15 1298.44 335.17 1295.98 330.88C1290.21 320.851 1283.52 311.386 1275.98 302.61C1271.5 297.493 1266.75 292.616 1261.76 288C1256.37 283.089 1250.67 278.524 1244.7 274.33C1238.71 270.127 1232.46 266.3 1226 262.87L1223.67 261.6L1221.32 260.43C1219.76 259.67 1218.23 258.86 1216.68 258.14C1213.57 256.74 1210.55 255.3 1207.51 254.14C1201.81 251.802 1196 249.752 1190.1 248L1185.98 246.89C1184.63 246.52 1183.31 246.14 1181.98 245.89C1179.35 245.35 1176.85 244.67 1174.42 244.34C1171.99 244.01 1169.69 243.47 1167.48 243.34L1164.27 242.98L1162.73 242.8L1161.24 242.73L1155.78 242.43C1154.11 242.43 1152.57 242.43 1151.18 242.43H1149.18L1147.46 242.53C1146.39 242.58 1145.46 242.61 1144.73 242.6C1143.24 242.6 1142.42 242.46 1142.37 242.2C1142.32 241.94 1143.03 241.56 1144.46 241.08C1145.18 240.84 1146.07 240.57 1147.14 240.28L1148.87 239.82L1150.87 239.49C1152.28 239.263 1153.86 239.03 1155.6 238.79C1157.34 238.65 1159.23 238.56 1161.28 238.45L1162.84 238.37H1164.45L1167.82 238.45C1170.15 238.45 1172.57 238.76 1175.13 238.99C1177.69 239.22 1180.34 239.7 1183.13 240.11C1184.52 240.3 1185.92 240.62 1187.34 240.93L1191.69 241.88C1197.92 243.428 1204.06 245.345 1210.07 247.62C1213.27 248.76 1216.44 250.17 1219.71 251.56C1221.33 252.27 1222.94 253.07 1224.58 253.84L1227.04 255.02L1229.48 256.3C1236.28 259.765 1242.83 263.694 1249.09 268.06Z" fill="white"/> <path d="M1217.9 575.94C1216.4 590.46 1217.02 603.56 1218.7 612.88C1219.51 617.55 1220.5 621.27 1221.08 623.88C1221.66 626.49 1221.95 628.08 1221.47 628.32C1220.99 628.56 1219.89 627.41 1218.33 625.04C1216.28 621.609 1214.64 617.951 1213.44 614.14C1210.24 604.52 1208.7 590.33 1210.27 575.14C1210.99 568.062 1212.12 561.03 1213.64 554.08C1215 547.71 1216.42 542.08 1217.64 537.34C1220.17 527.91 1221.99 522.12 1223.04 522.27C1224.09 522.42 1224.14 528.6 1222.96 538.36C1222.39 543.24 1221.51 549 1220.56 555.36C1219.61 561.72 1218.58 568.69 1217.9 575.94Z" fill="white"/> <path d="M1223 462.33C1224.96 467.295 1226.04 472.564 1226.19 477.9C1226.19 481.99 1225.5 484.52 1224.47 484.64C1223.44 484.76 1222.22 482.48 1220.86 478.88C1219.5 475.28 1217.86 470.36 1215.86 465.11C1214.86 462.49 1213.78 460.03 1212.81 457.78L1210.09 451.78C1208.52 448.34 1207.62 445.97 1208.43 445.25C1209.24 444.53 1211.61 445.73 1214.53 448.68C1216.21 450.42 1217.72 452.331 1219.01 454.38C1220.58 456.899 1221.92 459.561 1223 462.33Z" fill="white"/> <path d="M774.001 488C772.874 475.58 772.54 463.102 773.001 450.64C773.381 444.9 773.621 439.44 774.311 434.38C774.621 431.84 774.841 429.38 775.211 427.04L776.351 420.31C776.991 416.01 777.991 412.2 778.741 408.84C779.141 407.16 779.481 405.59 779.861 404.17L781.021 400.3C782.431 395.65 783.281 393.12 783.451 393.17C783.621 393.22 783.091 395.85 781.981 400.55L781.041 404.46C780.731 405.9 780.471 407.46 780.141 409.15C779.521 412.52 778.661 416.33 778.141 420.61L777.141 427.31C776.831 429.64 776.661 432.09 776.401 434.6C775.801 439.6 775.651 445.05 775.331 450.74C775.012 463.086 775.409 475.44 776.521 487.74C777.771 500.84 779.811 513.22 782.001 524.41L783.731 532.57C784.001 533.9 784.291 535.19 784.621 536.46L785.531 540.22C786.141 542.68 786.671 545.08 787.291 547.35L789.061 553.89C790.131 558.08 791.311 561.8 792.261 565.1L793.601 569.69L794.801 573.53C796.221 578.15 796.931 580.74 796.801 580.8C796.671 580.86 795.611 578.38 793.901 573.8L792.491 570.02C791.991 568.63 791.491 567.11 790.941 565.48C789.861 562.21 788.561 558.48 787.371 554.34L785.441 547.81C784.771 545.54 784.191 543.14 783.531 540.68L782.531 536.91C782.191 535.64 781.871 534.34 781.531 533.01L779.691 524.83C777.128 512.665 775.229 500.371 774.001 488Z" fill="#516D7B"/> <path d="M784.65 435.07C785.578 428.334 786.887 421.657 788.57 415.07C789.4 412.07 790.17 409.16 791.06 406.52C791.5 405.2 791.88 403.9 792.32 402.69L793.61 399.2C794.4 396.97 795.28 395.01 796.01 393.27C796.38 392.41 796.72 391.6 797.01 390.87L798.01 388.87C799.19 386.5 799.92 385.23 800.08 385.3C800.46 385.47 798.21 390.85 795.3 399.78L794.18 403.29C793.79 404.51 793.46 405.8 793.07 407.12C792.27 409.76 791.59 412.62 790.83 415.63C789.43 421.63 788.12 428.35 787.15 435.43C786.18 442.51 785.75 449.31 785.53 455.5C785.53 458.6 785.39 461.5 785.47 464.29C785.47 465.67 785.47 467 785.54 468.29L785.7 471.97C786.17 481.34 786.94 487.13 786.53 487.19C786.36 487.19 785.99 485.8 785.46 483.19L785.04 481.02C784.9 480.23 784.79 479.36 784.66 478.43C784.41 476.57 784.07 474.43 783.89 472.08L783.56 468.37C783.45 467.08 783.42 465.73 783.34 464.37C783.17 461.58 783.18 458.6 783.16 455.47C783.27 448.647 783.767 441.836 784.65 435.07Z" fill="#516D7B"/> <path d="M931.599 307.62C938.843 314.786 945.137 322.852 950.329 331.62C952.759 335.62 954.749 339.62 956.549 343.35C958.349 347.08 959.769 350.7 960.969 354.02C962.905 359.245 964.502 364.589 965.749 370.02C966.609 373.87 966.899 376.02 966.749 376.02C966.599 376.02 965.939 374.02 964.749 370.24C963.559 366.46 961.849 361.11 959.249 354.64C957.959 351.4 956.379 347.92 954.599 344.23C952.819 340.54 950.719 336.7 948.279 332.8C943.078 324.298 936.866 316.457 929.779 309.45C926.076 305.874 922.134 302.557 917.979 299.52C914.098 296.697 910.029 294.144 905.799 291.88L902.799 290.32C901.799 289.82 900.799 289.39 899.799 288.92C897.799 287.92 895.849 287.26 893.969 286.47C892.089 285.68 890.199 285.11 888.389 284.55C886.579 283.99 884.839 283.44 883.139 283.09C877.804 281.752 872.364 280.882 866.879 280.49C865.879 280.38 865.039 280.34 864.289 280.32L862.389 280.21C861.389 280.13 860.809 280.05 860.809 279.97C860.809 279.89 861.349 279.79 862.379 279.7L864.299 279.56C865.17 279.494 866.045 279.474 866.919 279.5C872.512 279.513 878.088 280.13 883.549 281.34C885.299 281.65 887.069 282.21 888.949 282.67C890.829 283.13 892.719 283.83 894.699 284.49C896.679 285.15 898.699 285.93 900.699 286.87C901.699 287.32 902.759 287.75 903.789 288.25L906.899 289.8C911.262 292.058 915.456 294.628 919.449 297.49C923.736 300.571 927.797 303.956 931.599 307.62Z" fill="#516D7B"/> <path d="M942.7 343.76C945.853 350.03 948.324 356.622 950.07 363.42C950.797 366.387 951.365 369.392 951.77 372.42C951.94 373.85 952.19 375.21 952.27 376.54L952.47 380.37C952.597 382.558 952.597 384.752 952.47 386.94C952.47 387.94 952.41 388.81 952.34 389.63L952.04 391.88C951.66 394.58 951.37 396.04 951.19 396.02C951.01 396 950.97 394.49 951.05 391.81L951.13 389.58C951.13 388.76 951.08 387.88 951.05 386.93C950.96 385.03 951.05 382.86 950.71 380.49L950.35 376.76C950.22 375.47 949.92 374.14 949.71 372.76C949.34 369.98 948.55 367.08 947.83 364.02C944.281 350.772 937.935 338.439 929.22 327.85C927.15 325.48 925.22 323.16 923.22 321.23C922.22 320.23 921.3 319.23 920.33 318.38L917.5 315.92C915.75 314.28 913.95 313.07 912.5 311.92C911.74 311.35 911.05 310.78 910.39 310.31L908.53 309.08C906.3 307.58 905.1 306.67 905.18 306.51C905.26 306.35 906.63 306.97 909.04 308.23L911.04 309.29C911.76 309.71 912.49 310.22 913.31 310.74C915.172 311.901 916.965 313.17 918.68 314.54L921.68 316.93C922.68 317.77 923.68 318.77 924.74 319.74C926.973 321.831 929.093 324.041 931.09 326.36C935.569 331.729 939.461 337.562 942.7 343.76Z" fill="#516D7B"/> <path d="M836.692 843.22C836.542 853.59 835.962 863.71 835.022 873.44C834.082 883.17 832.652 892.51 831.022 901.35L829.722 907.88C829.272 910.02 828.722 912.12 828.272 914.2C827.362 918.36 826.182 922.33 825.162 926.2C824.622 928.12 824.012 929.99 823.452 931.84C822.892 933.69 822.372 935.51 821.722 937.25L819.922 942.4L819.042 944.89L818.102 947.29C816.842 950.45 815.722 953.48 814.432 956.29C813.142 959.1 812.092 961.76 810.842 964.16C809.592 966.56 808.562 968.84 807.482 970.89L804.422 976.42C803.952 977.25 803.532 978.04 803.102 978.76L801.862 980.76L799.862 983.89C799.37 984.783 798.779 985.618 798.102 986.38C798.438 985.414 798.88 984.488 799.422 983.62L801.182 980.38L802.322 978.32C802.712 977.58 803.102 976.78 803.532 975.93L806.372 970.32C807.372 968.25 808.372 965.97 809.522 963.54C810.672 961.11 811.712 958.44 812.902 955.65C814.092 952.86 815.182 949.83 816.382 946.65L817.282 944.25L818.112 941.77L819.822 936.64C820.432 934.9 820.902 933.08 821.462 931.25C822.022 929.42 822.582 927.55 823.092 925.64C824.092 921.79 825.192 917.85 826.092 913.71C826.542 911.65 827.092 909.56 827.472 907.43L828.712 900.94C830.262 892.16 831.712 882.94 832.522 873.22C833.332 863.5 833.972 853.51 834.122 843.22C834.244 823.845 833.242 804.479 831.122 785.22C829.232 767.44 826.822 751.51 824.622 738.16C822.422 724.81 820.472 714.02 819.152 706.56C818.502 702.83 817.992 699.93 817.682 697.96C817.455 696.976 817.338 695.97 817.332 694.96C817.723 695.902 818.008 696.885 818.182 697.89C818.652 699.83 819.322 702.7 820.122 706.4C821.742 713.8 823.962 724.54 826.392 737.88C828.822 751.22 831.392 767.16 833.452 785C835.724 804.322 836.806 823.765 836.692 843.22Z" fill="#516D7B"/> <path d="M862.429 1005C867.99 996.745 872.803 988.011 876.809 978.9L879.309 972.68L879.919 971.18C880.109 970.68 880.259 970.18 880.429 969.67L881.429 966.67C882.049 964.72 882.749 962.87 883.239 961.04L884.609 955.76C885.609 952.42 886.039 949.3 886.609 946.59C886.869 945.23 887.149 943.97 887.339 942.8L887.769 939.59C888.309 935.73 888.689 933.59 888.859 933.59C889.029 933.59 888.989 935.77 888.759 939.69L888.549 942.96C888.429 944.15 888.209 945.43 888.019 946.81C887.628 949.952 887.077 953.073 886.369 956.16L885.139 961.55C884.689 963.42 884.029 965.31 883.449 967.3L882.519 970.3C882.359 970.81 882.219 971.3 882.029 971.84L881.439 973.38L878.999 979.83C871.234 998.596 859.613 1015.52 844.889 1029.51L839.829 1034.07L838.609 1035.17C838.199 1035.53 837.759 1035.85 837.339 1036.17L834.849 1038.17C833.199 1039.43 831.679 1040.72 830.089 1041.81L825.499 1044.9C822.874 1046.67 820.161 1048.31 817.369 1049.8C816.149 1050.48 815.029 1051.14 813.959 1051.68L810.959 1053.05C807.379 1054.68 805.379 1055.5 805.299 1055.34C805.219 1055.18 807.089 1054.06 810.499 1052.17L813.339 1050.61C814.339 1050.01 815.439 1049.29 816.609 1048.61C818.929 1047.11 821.679 1045.61 824.449 1043.45L828.879 1040.27C830.409 1039.16 831.879 1037.84 833.479 1036.56L835.889 1034.56C836.289 1034.22 836.719 1033.9 837.119 1033.56L838.299 1032.45L843.209 1027.88C850.287 1020.84 856.719 1013.19 862.429 1005Z" fill="#516D7B"/> <path d="M873.71 931.12C874.36 926.96 874.77 922.97 875.02 919.33C875.11 917.51 875.23 915.77 875.24 914.15C875.25 912.53 875.29 911.01 875.24 909.62C875.24 904.08 874.96 900.62 875.34 900.62C875.72 900.62 876.53 903.96 877.04 909.62C877.16 911.02 877.28 912.56 877.31 914.22C877.34 915.88 877.31 917.65 877.31 919.52C877.08 927.629 875.792 935.674 873.48 943.45C872.92 945.23 872.4 946.93 871.81 948.45C871.22 949.97 870.67 951.45 870.12 952.74C867.88 957.92 865.99 960.86 865.71 960.74C865.43 960.62 866.71 957.37 868.44 952.12C868.88 950.81 869.36 949.37 869.81 947.81C870.26 946.25 870.74 944.58 871.22 942.81C872.17 939.2 873 935.28 873.71 931.12Z" fill="#516D7B"/> <path d="M1093.57 402.79C1102.35 404.78 1111.23 406.322 1120.17 407.41C1124.3 407.83 1128.22 408.29 1131.92 408.48C1133.76 408.59 1135.54 408.76 1137.26 408.82L1142.19 408.99C1145.33 409.15 1148.19 409.08 1150.68 409.11H1154.17L1157.1 409.04C1160.63 408.98 1162.59 409.04 1162.6 409.2C1162.61 409.36 1160.68 409.66 1157.15 410.03L1154.22 410.32C1153.15 410.4 1151.98 410.45 1150.72 410.51C1148.21 410.62 1145.34 410.82 1142.17 410.77H1137.17C1135.44 410.77 1133.64 410.64 1131.78 410.57C1128.05 410.47 1124.08 410.08 1119.9 409.72C1101.76 407.883 1083.93 403.743 1066.83 397.4C1062.92 395.88 1059.18 394.48 1055.83 392.93C1054.13 392.17 1052.46 391.48 1050.9 390.73L1046.43 388.54C1043.56 387.19 1041.08 385.74 1038.87 384.54C1037.77 383.93 1036.74 383.37 1035.81 382.82L1033.3 381.26C1030.3 379.38 1028.69 378.26 1028.78 378.11C1028.87 377.96 1030.65 378.78 1033.78 380.39L1036.38 381.74L1039.52 383.26C1041.78 384.34 1044.3 385.66 1047.19 386.89L1051.69 388.89C1053.26 389.59 1054.93 390.22 1056.63 390.89C1060.03 392.35 1063.75 393.66 1067.63 395.1C1076.14 398.102 1084.8 400.669 1093.57 402.79Z" fill="#516D7B"/> <path d="M1141.85 400.8C1148.09 401.42 1154.06 401.73 1159.5 401.86C1162.22 401.86 1164.8 401.94 1167.22 401.86C1169.64 401.78 1171.89 401.76 1173.95 401.67C1182.18 401.31 1187.27 400.79 1187.33 401.18C1187.39 401.57 1182.33 402.64 1174.08 403.47C1172.01 403.67 1169.74 403.87 1167.3 403.97C1164.86 404.07 1162.24 404.16 1159.49 404.2C1153.99 404.2 1147.93 403.96 1141.6 403.33C1135.27 402.7 1129.3 401.68 1123.91 400.57C1121.22 399.97 1118.67 399.42 1116.31 398.77C1113.95 398.12 1111.75 397.52 1109.77 396.91C1101.83 394.43 1097.14 392.28 1097.25 391.99C1097.36 391.7 1102.25 393.16 1110.25 395.17C1112.25 395.67 1114.43 396.17 1116.8 396.71C1119.17 397.25 1121.7 397.71 1124.36 398.26C1129.71 399.24 1135.61 400.14 1141.85 400.8Z" fill="#516D7B"/> <path d="M1051.14 265.92C1056.38 262.951 1061.78 260.261 1067.3 257.86C1069.86 256.8 1072.3 255.77 1074.62 254.95C1075.78 254.53 1076.89 254.1 1077.98 253.74L1081.11 252.74C1089.11 250.23 1094.24 249.35 1094.31 249.65C1094.38 249.95 1089.47 251.53 1081.7 254.45L1078.7 255.61C1077.64 256.01 1076.56 256.49 1075.43 256.95C1073.16 257.85 1070.8 258.95 1068.29 260.04C1063.29 262.34 1057.94 265.04 1052.44 268.17C1046.94 271.3 1041.91 274.59 1037.44 277.71C1035.22 279.31 1033.08 280.79 1031.15 282.29C1030.15 283.03 1029.23 283.72 1028.34 284.43L1025.8 286.43C1019.34 291.65 1015.55 295.15 1015.27 294.87C1014.99 294.59 1018.4 290.69 1024.63 285.06L1027.1 282.88C1027.96 282.13 1028.9 281.39 1029.85 280.6C1031.74 279.01 1033.85 277.44 1036.07 275.77C1040.92 272.225 1045.95 268.937 1051.14 265.92Z" fill="#516D7B"/> <path d="M1077.16 263.07C1080.42 261.629 1083.76 260.361 1087.16 259.27C1089.95 258.389 1092.78 257.651 1095.64 257.06C1100.53 256.06 1103.64 255.92 1103.64 256.24C1103.79 257.01 1091.75 259.24 1078.12 265.41C1064.49 271.58 1054.69 278.84 1054.22 278.22C1054.02 277.97 1056.22 275.77 1060.22 272.8C1062.58 271.069 1065.02 269.46 1067.54 267.98C1070.66 266.174 1073.87 264.535 1077.16 263.07Z" fill="#516D7B"/> <path d="M1300.79 557.16C1295.4 582.332 1293.14 608.073 1294.06 633.8C1294.42 643.67 1295.17 651.64 1295.69 657.15C1296.21 662.66 1296.58 665.71 1296.4 665.73C1296.1 665.043 1295.91 664.314 1295.83 663.57C1295.55 662.14 1295.14 660.02 1294.71 657.28C1293.89 651.79 1292.86 643.81 1292.27 633.88C1290.79 607.971 1292.81 581.981 1298.27 556.61C1299.92 549.2 1301.72 542 1303.77 535.15C1305.82 528.3 1307.87 521.74 1309.77 515.48C1311.67 509.22 1313.39 503.26 1314.77 497.62C1315.5 494.81 1316.03 492.07 1316.61 489.44C1317.19 486.81 1317.61 484.27 1317.89 481.82C1319.06 474.134 1319.31 466.335 1318.64 458.59C1318.46 455.84 1318.06 453.73 1317.87 452.29C1317.7 451.556 1317.64 450.801 1317.7 450.05C1318.03 450.721 1318.26 451.439 1318.38 452.18C1318.94 454.245 1319.36 456.347 1319.63 458.47C1320.7 466.289 1320.71 474.216 1319.68 482.04C1319.45 484.53 1318.95 487.09 1318.55 489.79C1318.15 492.49 1317.55 495.25 1316.83 498.09C1315.55 503.81 1313.89 509.83 1312.05 516.09L1306.21 535.79C1304.19 542.68 1302.43 549.81 1300.79 557.16Z" fill="#516D7B"/> <path d="M1313.21 949.24C1317.57 961.402 1322.62 973.302 1328.35 984.88L1332.35 992.6C1333.6 995.13 1335.06 997.46 1336.35 999.77C1337.64 1002.08 1338.89 1004.32 1340.19 1006.41L1343.95 1012.41C1346.27 1016.28 1348.67 1019.58 1350.66 1022.56C1351.66 1024.04 1352.59 1025.44 1353.47 1026.69L1355.95 1030.08C1358.95 1034.17 1360.5 1036.48 1360.37 1036.59C1360.24 1036.7 1358.37 1034.59 1355.17 1030.68L1352.5 1027.41C1351.55 1026.19 1350.58 1024.83 1349.5 1023.41C1347.39 1020.49 1344.87 1017.24 1342.44 1013.41L1338.52 1007.46C1337.17 1005.38 1335.91 1003.14 1334.52 1000.85C1333.13 998.56 1331.68 996.22 1330.38 993.69L1326.24 985.96C1314.29 962.761 1305.6 938.024 1300.41 912.45L1298.81 903.82C1298.24 901.03 1297.96 898.28 1297.56 895.64C1297.16 893 1296.79 890.45 1296.56 887.98L1295.9 880.89C1295.4 876.38 1295.33 872.27 1295.16 868.67C1295.09 866.87 1295 865.2 1294.98 863.67V859.45C1295.05 854.38 1295.17 851.58 1295.34 851.58C1295.51 851.58 1295.73 854.38 1295.97 859.42L1296.15 863.62C1296.24 865.15 1296.41 866.82 1296.54 868.62C1296.85 872.19 1297.05 876.27 1297.65 880.74L1298.47 887.74C1298.76 890.18 1299.23 892.74 1299.62 895.32C1300.01 897.9 1300.38 900.66 1300.99 903.42L1302.69 911.96C1305.47 924.579 1308.99 937.027 1313.21 949.24Z" fill="#516D7B"/> <path d="M1292.13 901.06C1293.51 907.81 1295.05 914.19 1296.56 919.97C1297.35 922.85 1298.07 925.59 1298.84 928.14C1299.61 930.69 1300.3 933.06 1300.97 935.22C1303.66 943.85 1305.53 949.14 1305.17 949.29C1304.81 949.44 1302.41 944.34 1299.26 935.8C1298.48 933.66 1297.64 931.32 1296.82 928.8C1296 926.28 1295.16 923.52 1294.3 920.63C1292.65 914.84 1291.03 908.41 1289.64 901.63C1288.25 894.85 1287.26 888.27 1286.52 882.29C1286.19 879.29 1285.85 876.46 1285.66 873.79C1285.47 871.12 1285.28 868.64 1285.16 866.36C1284.73 857.27 1285.03 851.64 1285.34 851.63C1285.65 851.62 1286.07 857.22 1286.96 866.22C1287.19 868.47 1287.43 870.93 1287.76 873.57C1288.09 876.21 1288.45 879.02 1288.85 881.98C1289.7 887.83 1290.78 894.3 1292.13 901.06Z" fill="#516D7B"/> <path d="M1211.06 1007.47C1216.15 1011.26 1221.56 1014.6 1227.23 1017.47C1229.89 1018.7 1232.38 1019.95 1234.83 1020.85C1236.05 1021.32 1237.2 1021.85 1238.35 1022.22L1241.66 1023.31C1243.75 1024.07 1245.72 1024.5 1247.42 1024.98C1248.28 1025.21 1249.07 1025.45 1249.8 1025.62L1251.8 1026.05C1254.24 1026.59 1255.59 1026.97 1255.57 1027.15C1255.55 1027.33 1254.16 1027.28 1251.64 1027.03L1249.55 1026.81C1248.79 1026.7 1247.97 1026.53 1247.09 1026.37C1245.07 1026.03 1243.06 1025.59 1241.09 1025.04L1237.66 1024.04C1236.47 1023.7 1235.27 1023.22 1234.01 1022.78C1231.47 1021.95 1228.88 1020.78 1226.13 1019.54C1214.3 1013.97 1203.76 1005.98 1195.21 996.08C1193.31 993.76 1191.45 991.59 1189.97 989.36C1189.21 988.26 1188.43 987.24 1187.78 986.19L1185.94 983.19C1184.89 981.448 1183.93 979.652 1183.06 977.81C1182.67 977 1182.28 976.26 1181.97 975.56L1181.2 973.56C1180.29 971.2 1179.87 969.87 1180.03 969.81C1180.19 969.75 1180.93 970.94 1182.1 973.14L1183.1 974.98C1183.47 975.64 1183.91 976.34 1184.36 977.1C1185.28 978.61 1186.22 980.39 1187.52 982.2L1189.46 985.09C1190.14 986.09 1190.95 987.09 1191.73 988.09C1193.25 990.21 1195.12 992.28 1197.03 994.5C1201.33 999.217 1206.02 1003.56 1211.06 1007.47Z" fill="#516D7B"/> <path d="M1248 1012.35C1254.31 1014.98 1260.76 1017.23 1267.34 1019.09C1270.39 1019.88 1273.28 1020.68 1276.03 1021.22C1277.4 1021.51 1278.72 1021.83 1280.03 1022.06L1283.72 1022.7C1286.07 1023.16 1288.22 1023.38 1290.1 1023.7L1292.72 1024.07L1294.94 1024.31C1297.6 1024.61 1299.08 1024.86 1299.08 1025.04C1299.08 1025.22 1297.58 1025.3 1294.88 1025.3H1292.63C1291.81 1025.3 1290.92 1025.2 1289.96 1025.14C1288.05 1024.99 1285.86 1024.9 1283.46 1024.55L1279.69 1024.06C1278.38 1023.88 1277.04 1023.6 1275.63 1023.35C1272.82 1022.89 1269.87 1022.15 1266.75 1021.42C1253.26 1017.97 1240.37 1012.5 1228.53 1005.17C1225.84 1003.44 1223.26 1001.82 1220.98 1000.12C1219.83 999.28 1218.69 998.51 1217.66 997.69L1214.66 995.32C1212.75 993.84 1211.16 992.32 1209.72 991.06C1209.01 990.41 1208.34 989.82 1207.72 989.25L1206.15 987.64C1204.28 985.69 1203.3 984.56 1203.43 984.44C1203.56 984.32 1204.76 985.2 1206.83 986.91L1208.54 988.34L1210.63 989.97C1212.14 991.13 1213.79 992.53 1215.75 993.89L1218.75 996.1C1219.8 996.87 1220.95 997.59 1222.11 998.38C1224.41 999.99 1226.99 1001.51 1229.67 1003.16C1235.59 1006.59 1241.71 1009.66 1248 1012.35Z" fill="#516D7B"/> <path d="M1104.85 823C1104.52 849.6 1082.93 871.78 1056.07 871.78C1029.21 871.78 1007.62 849.6 1007.29 823C1007.19 815.28 995.19 815.26 995.29 823C995.408 835.445 999.293 847.563 1006.43 857.758C1013.57 867.952 1023.63 875.745 1035.29 880.11C1058.81 888.87 1086.49 881.39 1102.52 862.11C1111.67 851.12 1116.73 837.3 1116.85 823C1116.95 815.28 1104.95 815.27 1104.85 823Z" fill="#385868"/> <path d="M920.56 1063.68C922.82 1086.52 935.1 1106.88 952.77 1121.28C972.77 1137.58 997.71 1145.44 1022.99 1148.79C1073.47 1155.47 1130.22 1149.88 1172.82 1119.79C1193.97 1104.88 1210.82 1084.87 1220.23 1060.65C1223.03 1053.45 1211.43 1050.33 1208.66 1057.46C1192.66 1098.65 1152.34 1124.2 1110.73 1133.71C1086.66 1139.21 1061.58 1140.08 1037.01 1138.2C1013.44 1136.4 989.31 1131.28 969.14 1118.39C950.23 1106.3 934.81 1086.48 932.55 1063.63C931.8 1056.02 919.79 1055.94 920.55 1063.63L920.56 1063.68Z" fill="#385868"/> <path d="M707.879 1235.38H1444.31C1451.81 1235.38 1459 1238.36 1464.3 1243.66C1469.6 1248.96 1472.58 1256.15 1472.58 1263.65V1736.71C1472.58 1741.19 1470.8 1745.5 1467.63 1748.67C1464.46 1751.84 1460.15 1753.62 1455.67 1753.62H696.519C692.035 1753.62 687.733 1751.84 684.562 1748.67C681.391 1745.5 679.609 1741.19 679.609 1736.71V1263.65C679.609 1256.15 682.588 1248.96 687.889 1243.66C693.191 1238.36 700.382 1235.38 707.879 1235.38Z" fill="#256075"/> <path d="M1443.87 1234.24H712.689C695.619 1234.24 681.789 1247.3 681.789 1263.4V1278.79C681.789 1262.69 695.619 1249.63 712.689 1249.63H1443.87C1460.94 1249.63 1474.77 1262.69 1474.77 1278.79V1263.4C1474.77 1247.29 1460.94 1234.24 1443.87 1234.24Z" fill="#347888"/> <path d="M1479.92 1758.61H676.77V1262.88C676.777 1254.26 680.203 1246 686.294 1239.91C692.385 1233.82 700.644 1230.39 709.26 1230.38H1447.44C1456.05 1230.39 1464.31 1233.82 1470.41 1239.91C1476.5 1246 1479.92 1254.26 1479.93 1262.88L1479.92 1758.61ZM686.77 1748.61H1469.92V1262.88C1469.91 1256.92 1467.54 1251.2 1463.33 1246.98C1459.11 1242.76 1453.39 1240.39 1447.43 1240.38H709.26C703.296 1240.39 697.578 1242.76 693.362 1246.98C689.146 1251.2 686.775 1256.92 686.77 1262.88V1748.61Z" fill="#385868"/> <path d="M513.249 1699.24C500.142 1699.2 487.341 1695.28 476.461 1687.97C465.581 1680.66 457.112 1670.29 452.122 1658.17C447.132 1646.05 445.846 1632.73 448.426 1619.88C451.006 1607.03 457.337 1595.23 466.618 1585.97C475.899 1576.72 487.715 1570.42 500.572 1567.88C513.43 1565.34 526.753 1566.66 538.858 1571.69C550.964 1576.71 561.309 1585.21 568.587 1596.11C575.865 1607.01 579.749 1619.82 579.749 1632.93C579.704 1650.54 572.677 1667.4 560.21 1679.84C547.743 1692.27 530.855 1699.25 513.249 1699.24ZM513.249 1584.63C503.702 1584.67 494.38 1587.53 486.46 1592.86C478.541 1598.2 472.378 1605.75 468.751 1614.59C465.124 1623.42 464.195 1633.13 466.081 1642.48C467.967 1651.84 472.584 1660.43 479.349 1667.17C486.114 1673.91 494.723 1678.49 504.09 1680.34C513.457 1682.18 523.161 1681.21 531.977 1677.55C540.793 1673.89 548.326 1667.69 553.625 1659.75C558.924 1651.81 561.751 1642.48 561.749 1632.93C561.707 1620.1 556.577 1607.81 547.485 1598.75C538.393 1589.7 526.081 1584.62 513.249 1584.63Z" fill="#385868"/> <path d="M540.75 1583.68V1605.8C534.75 1672.14 475.26 1724.24 402.75 1724.24C330.24 1724.24 270.75 1672.14 264.75 1605.8V1583.68C265.325 1577.24 266.412 1570.86 268 1564.6C268.677 1561.93 270.224 1559.56 272.397 1557.86C274.57 1556.17 277.245 1555.25 280 1555.24H525.46C528.216 1555.25 530.89 1556.17 533.063 1557.86C535.236 1559.56 536.783 1561.93 537.46 1564.6C539.062 1570.86 540.162 1577.24 540.75 1583.68Z" fill="#68B9E1"/> <path d="M540.75 1560.24C540.753 1563.26 540.444 1566.28 539.83 1569.24H385.59C385.59 1586.91 372.28 1601.24 355.86 1601.24H354C350.042 1601.21 346.132 1600.37 342.518 1598.76C338.903 1597.14 335.662 1594.8 333 1591.87C327.345 1585.7 324.233 1577.61 324.29 1569.24H266.67C266.056 1566.28 265.747 1563.26 265.75 1560.24H540.75Z" fill="#ACD8F8"/> <path d="M403.75 1729.24C367.62 1729.24 333.09 1716.61 306.54 1693.68C279.99 1670.75 263.8 1639.76 260.77 1606.25V1605.8V1583.23C261.379 1576.53 262.519 1569.89 264.18 1563.37C265.128 1559.62 267.295 1556.3 270.341 1553.92C273.386 1551.55 277.136 1550.25 281 1550.24H526.46C530.332 1550.24 534.093 1551.53 537.149 1553.91C540.204 1556.29 542.379 1559.62 543.33 1563.37C544.987 1569.89 546.123 1576.53 546.73 1583.23V1583.68V1606.25C543.73 1639.76 527.44 1670.81 500.96 1693.68C474.48 1716.55 439.88 1729.24 403.75 1729.24ZM270.75 1605.57C273.6 1636.4 288.62 1664.99 313.08 1686.11C337.82 1707.47 370.02 1719.24 403.75 1719.24C437.48 1719.24 469.69 1707.48 494.42 1686.11C518.87 1664.99 533.9 1636.4 536.75 1605.57V1583.91C536.183 1577.81 535.14 1571.77 533.63 1565.84C533.225 1564.24 532.301 1562.83 531.003 1561.82C529.704 1560.8 528.106 1560.25 526.46 1560.25H281C279.353 1560.25 277.755 1560.8 276.456 1561.82C275.158 1562.83 274.234 1564.24 273.83 1565.84C272.319 1571.77 271.276 1577.81 270.71 1583.91L270.75 1605.57Z" fill="#385868"/> <path d="M254.75 1710.24H550.75C550.75 1721.11 546.43 1731.54 538.741 1739.23C531.052 1746.92 520.624 1751.24 509.75 1751.24H295.75C284.876 1751.24 274.448 1746.92 266.759 1739.23C259.07 1731.54 254.75 1721.11 254.75 1710.24Z" fill="#68B9E1"/> <path d="M544.749 1712.24C544.737 1715.27 544.402 1718.28 543.749 1721.24H383.389C383.389 1738.91 369.539 1753.24 352.469 1753.24H350.539C346.45 1753.23 342.405 1752.4 338.646 1750.79C334.888 1749.18 331.494 1746.83 328.669 1743.87C322.829 1737.79 319.583 1729.67 319.619 1721.24H259.699C259.046 1718.28 258.711 1715.27 258.699 1712.24H544.749Z" fill="#ACD8F8"/> <path d="M510.75 1756.24H296.75C284.554 1756.23 272.862 1751.38 264.238 1742.75C255.614 1734.13 250.763 1722.44 250.75 1710.24V1705.24H556.75V1710.24C556.737 1722.44 551.886 1734.13 543.262 1742.75C534.638 1751.38 522.946 1756.23 510.75 1756.24ZM261.1 1715.24C262.316 1723.83 266.59 1731.7 273.139 1737.39C279.688 1743.09 288.072 1746.23 296.75 1746.24H510.75C519.428 1746.23 527.81 1743.09 534.359 1737.39C540.907 1731.7 545.182 1723.83 546.4 1715.24H261.1Z" fill="#385868"/> <path d="M540.75 1584.74H467.75V1591.74H540.75V1584.74Z" fill="#385868"/> <g opacity="0.4"> <path opacity="0.4" d="M945.641 746.74C967.053 746.74 984.411 737.338 984.411 725.74C984.411 714.142 967.053 704.74 945.641 704.74C924.229 704.74 906.871 714.142 906.871 725.74C906.871 737.338 924.229 746.74 945.641 746.74Z" fill="white"/> <path opacity="0.4" d="M1166.37 746.74C1187.78 746.74 1205.14 737.338 1205.14 725.74C1205.14 714.142 1187.78 704.74 1166.37 704.74C1144.96 704.74 1127.6 714.142 1127.6 725.74C1127.6 737.338 1144.96 746.74 1166.37 746.74Z" fill="white"/> </g> </g> <defs> <clipPath id="clip0"> <rect width="2029.57" height="1762.24" fill="white"/> </clipPath> </defs> </svg> 